<svg xmlns="http://www.w3.org/2000/svg" id="icon_departamentos_carnes-aves-peixes" width="52" height="52" viewBox="0 0 52 52">
    <defs>
        <style>
            .cls-1{fill:none}
        </style>
    </defs>
    <g id="Group_28" data-name="Group 28">
        <path id="Path_21" d="M21.7 18.9a1.05 1.05 0 0 0-1.4.5l-4 8a1.05 1.05 0 0 0 .5 1.4.749.749 0 0 0 .5.1.961.961 0 0 0 .9-.6l4-8a1.15 1.15 0 0 0-.5-1.4z" data-name="Path 21"/>
        <path id="Path_22" d="M27.2 18.9a1.05 1.05 0 0 0-1.4.5l-4 8a1.05 1.05 0 0 0 .5 1.4.749.749 0 0 0 .5.1.961.961 0 0 0 .9-.6l4-8a1.15 1.15 0 0 0-.5-1.4z" data-name="Path 22"/>
        <path id="Path_23" d="M32.6 18.9a1.05 1.05 0 0 0-1.4.5l-4 8a1.05 1.05 0 0 0 .5 1.4.749.749 0 0 0 .5.1.961.961 0 0 0 .9-.6l4-8a1.15 1.15 0 0 0-.5-1.4z" data-name="Path 23"/>
        <path id="Path_24" d="M44.3 28.4v-1.6c0-.1-.1-.3-.1-.4a6.943 6.943 0 0 0-.5-1.3 15.089 15.089 0 0 0-1.5-2.8 21 21 0 0 0-14.6-9.6c-.4-.1-.8-.1-1.2-.2a14.084 14.084 0 0 0-2-.1 20.777 20.777 0 0 0-11.1 3.2c-.1.1-.3.2-.4.3a.1.1 0 0 0-.1.1c-.1.1-.3.2-.4.3l-.1.1c-.1.1-.2.1-.3.2l-.1.1-.3.3c-.1 0-.1.1-.2.1l-.2.2-.3.3-.1.1-.2.2-.1.1-.3.3-.1.1-.2.2c-.1.1-.1.2-.2.3a.31.31 0 0 0-.1.2c0 .1-.1.1-.1.2v.1a.1.1 0 0 1-.1.1c-.1.1-.1.2-.2.3a.1.1 0 0 1-.1.1.52.52 0 0 0-.2.4c-.1.1-.1.3-.2.4v.1c-.1.2-.1.3-.2.5s-.1.3-.2.5a4.331 4.331 0 0 0-.1.5c0 .1-.1.2-.1.4v.5a6.6 6.6 0 0 0-.1 1.4v3.9a10.9 10.9 0 0 0 1.7 5.8 11.038 11.038 0 0 0 9.4 5.2 10.642 10.642 0 0 0 5.8-1.7 8.889 8.889 0 0 1 4.7-1.4 8.3 8.3 0 0 1 4.1 1 14.723 14.723 0 0 0 2.2 1 7.772 7.772 0 0 0 1.6.2 6.855 6.855 0 0 0 6.7-5.3 7.719 7.719 0 0 0 .2-1.5v-.1zm-2.5 5.4a4.951 4.951 0 0 1-4.4 2.9 4.1 4.1 0 0 1-1.1-.1c-.3-.1-1.3-.6-1.6-.7a.1.1 0 0 1-.1-.1 11.691 11.691 0 0 0-5.1-1.3 10.642 10.642 0 0 0-5.8 1.7 8.841 8.841 0 0 1-12.3-2.8v-.1l-.7-1.1.9.9A11.265 11.265 0 0 0 19 36a10.642 10.642 0 0 0 5.8-1.7 8.889 8.889 0 0 1 4.7-1.4 8.3 8.3 0 0 1 4.1 1 14.723 14.723 0 0 0 2.2 1 7.719 7.719 0 0 0 1.5.2 6.773 6.773 0 0 0 4.1-1.4l.5-.4zm.4-5.4c0 .3-.1.6-.1.8a4.729 4.729 0 0 1-4.7 3.7 4.1 4.1 0 0 1-1.1-.1c-.3-.1-1.4-.6-1.6-.7a.1.1 0 0 1-.1-.1 11.352 11.352 0 0 0-5.1-1.3 10.643 10.643 0 0 0-5.8 1.7 8.841 8.841 0 0 1-12.3-2.8A9.512 9.512 0 0 1 10 25v-.3a8.752 8.752 0 0 1 .2-1.6V23c0-.1.1-.3.1-.4v-.1c0-.2.1-.3.1-.5.1-.2.1-.3.2-.5v-.1c.1-.1.1-.2.2-.4a.1.1 0 0 1 .1-.1c.1-.2.1-.3.2-.4l.6-.9c.1-.1.2-.3.3-.4a6.034 6.034 0 0 1 .8-.8 1.38 1.38 0 0 1 .4-.3l.1-.1c.1-.1.2-.2.3-.2l.1-.1a1.38 1.38 0 0 0 .4-.3 18.9 18.9 0 0 1 26.1 6 21.482 21.482 0 0 1 1.4 2.6v.1a3.552 3.552 0 0 1 .4.9c0 .1 0 .1.1.2a1.949 1.949 0 0 1 .1.8v.4z" data-name="Path 24"/>
    </g>
</svg>
