<svg xmlns="http://www.w3.org/2000/svg" id="icon_departamentos_bebidas" width="52" height="52" viewBox="0 0 52 52">
    <defs>
        <style>
            .cls-1{fill:none}
        </style>
    </defs>
    <path id="Path_19" d="M31.9 39.3a28.151 28.151 0 0 1 .2-7.1 39.834 39.834 0 0 0 .2-5.8V25a4.678 4.678 0 0 0-.2-1.6v-.1a16.038 16.038 0 0 0-2.6-5.7l-.1-.1a.6.6 0 0 1-.1-.4v-5.2a2.1 2.1 0 0 0 .4-1.1V9.4A1.752 1.752 0 0 0 28 7.7h-3.8a1.752 1.752 0 0 0-1.7 1.7v1.4a1.5 1.5 0 0 0 .4 1.1V17c0 .2 0 .3-.1.4l-.1.2a16.948 16.948 0 0 0-2.6 5.7v.1a8.752 8.752 0 0 0-.2 1.6v1.4a39.834 39.834 0 0 0 .2 5.8 33.74 33.74 0 0 1 .2 7.1l-.2 1.6a2.863 2.863 0 0 0 .6 2.2 2.814 2.814 0 0 0 2.1 1h6.9a2.814 2.814 0 0 0 2.1-1 2.863 2.863 0 0 0 .6-2.2zm-1.8 2.6a.864.864 0 0 1-.6.3h-6.9a.713.713 0 0 1-.6-.3.844.844 0 0 1-.2-.7h8.5a.618.618 0 0 1-.2.7zm-5.7-31.3v-1h3.3v.9h-3.3zm-2.2 12a13.242 13.242 0 0 1 2-3.8l.1-.2a2.976 2.976 0 0 0 .5-1.5v-4.6h2.6V17a2.7 2.7 0 0 0 .5 1.5v.1a20.288 20.288 0 0 1 2.1 4zm8.2 7.1h-8.7v-5.2h8.7v5.2zM30 39.3h-7.9a30.961 30.961 0 0 0-.2-7.5v-.2h8.4v.2a31.229 31.229 0 0 0-.3 7.5z" data-name="Path 19"/>
</svg>
