<svg xmlns="http://www.w3.org/2000/svg" id="icon_departamentos_higiene-beleza" width="52" height="52" viewBox="0 0 52 52">
    <defs>
        <style>
            .cls-1{fill:none}
        </style>
    </defs>
    <g id="Group_29" data-name="Group 29">
        <path id="Path_25" d="M43.6 36.4h-.7a3.529 3.529 0 0 0 .3-1.4 3.9 3.9 0 0 0-3.9-3.9H39a3.4 3.4 0 0 0-1 .1 15.827 15.827 0 0 1-3.8.5h-1.8a15.827 15.827 0 0 1-3.8-.5 3.083 3.083 0 0 0-1-.1h-.2a1.949 1.949 0 0 0-.8.1v-5.5h-.1a9.134 9.134 0 0 0-5.3-7.5v-3.7a.684.684 0 0 0-.7-.7h-1.1v-1.7h1.1a.684.684 0 0 0 .7-.7v-.5h3.5V12a.684.684 0 0 0 .7.7h.4a.684.684 0 0 0 .7-.7V9.7a.684.684 0 0 0-.7-.7h-4.6v-.5a.684.684 0 0 0-.7-.7H14a.684.684 0 0 0-.7.7v2.8a.684.684 0 0 0 .7.7h1v1.7h-1a.684.684 0 0 0-.7.7v3.7A9.134 9.134 0 0 0 8 25.6h-.1V42a2.112 2.112 0 0 0 2.1 2.1h14.3a2.389 2.389 0 0 0 1.4-.5 4.061 4.061 0 0 0 2.1.5h10.7a4.823 4.823 0 0 0 3-1.1 4.582 4.582 0 0 0 1.5-2.5h.6a.684.684 0 0 0 .7-.7V37a.669.669 0 0 0-.7-.6zM19.2 9.7v.5h-4.1v-.5zm5.3 16H9.9a7.426 7.426 0 0 1 7.3-6.4 7.256 7.256 0 0 1 7.3 6.4zm-9.4-8.4v-1.7h4.1v1.7zm2.3-5.2v1.7h-.5v-1.7zm25 26.1v.5H24.1v-.5zM9.8 39.4h12.4v.5a.684.684 0 0 0 .7.7h.6c0 .1 0 .2.1.2v.1c.1.2.1.4.2.5v.1c.1.1.1.3.2.4 0 .1.1.1.1.2a.1.1 0 0 0 .1.1H10a.215.215 0 0 1-.2-.2zm14.8-7.3l-.2.2-.1.1c-.1.1-.1.1-.1.2s-.1.1-.1.2-.1.1-.1.2-.1.1-.1.2 0 .1-.1.2v.1a.1.1 0 0 1-.1.1.349.349 0 0 1-.1.2v.1a.367.367 0 0 1-.1.3v1.1a.367.367 0 0 0 .1.3v.1c0 .1.1.2.1.3H23a.684.684 0 0 0-.7.7v.5H9.8v-10h14.8zm16 4.3H25.9a1.612 1.612 0 0 1-.6-1.3 2.26 2.26 0 0 1 .5-1.5 1.38 1.38 0 0 1 .4-.3 1.746 1.746 0 0 1 1.2-.4h.2a.749.749 0 0 1 .5.1 20.236 20.236 0 0 0 4.3.5h1.8a20.236 20.236 0 0 0 4.3-.5c.2 0 .3-.1.5-.1h.2a2.006 2.006 0 0 1 2 2 2.035 2.035 0 0 1-.6 1.5zm.5 4.2a2.725 2.725 0 0 1-2.5 1.7H27.9a2.41 2.41 0 0 1-1.8-.7 1.38 1.38 0 0 1-.3-.4V41c-.1-.1-.1-.2-.2-.3v-.2h15.5z" data-name="Path 25"/>
        <path id="Path_26" d="M30.9 28.7a3.9 3.9 0 0 0 3.9-3.9 3.9 3.9 0 0 0-7.8 0 3.783 3.783 0 0 0 3.9 3.9zm-2.1-3.9a2 2 0 1 1 2 2 2.006 2.006 0 0 1-2-2z" data-name="Path 26"/>
        <path id="Path_27" d="M37.4 25.1a2.7 2.7 0 1 0 2.7 2.7 2.689 2.689 0 0 0-2.7-2.7zm.9 2.7a.789.789 0 0 1-.8.8.86.86 0 0 1-.8-.8.8.8 0 1 1 1.6 0z" data-name="Path 27"/>
        <path id="Path_28" d="M37.4 24a2.112 2.112 0 0 0 2.1-2.1 2.1 2.1 0 1 0-4.2 0 2.112 2.112 0 0 0 2.1 2.1zm-.2-2.2a.2.2 0 1 1 .2.2c-.1.1-.2 0-.2-.2z" data-name="Path 28"/>
    </g>
</svg>
