<svg xmlns="http://www.w3.org/2000/svg" id="icon_departamentos_padaria" width="52" height="52" viewBox="0 0 52 52">
    <defs>
        <style>
            .cls-1{fill:none}
        </style>
    </defs>
    <path id="Path_9" d="M43.8 11.9a9.821 9.821 0 0 0-7.1-3 18.3 18.3 0 0 0-9.5 3.1c-1.1.7-2.2 1.4-3.4 2.3-1.5 1.2-3 2.5-4.6 4l-.4.4c-.7.7-1.4 1.5-2.1 2.2a43.711 43.711 0 0 0-3.6 4.4 23.811 23.811 0 0 0-1.8 3 17.835 17.835 0 0 0-1.7 4 23.187 23.187 0 0 0-.6 3 10.066 10.066 0 0 0 2.9 8.4 5.308 5.308 0 0 0 3.7 1.4c2.1 0 4.7-1 7.7-3a70.027 70.027 0 0 0 10.3-8.7 69.349 69.349 0 0 0 8.6-10.1 14.013 14.013 0 0 0 1.7-3c1.8-3.6 1.8-6.5-.1-8.4zm-3.4 10.3A60.529 60.529 0 0 1 32 32a70.444 70.444 0 0 1-9.9 8.4q-6.3 4.05-8.7 1.8a8.059 8.059 0 0 1-2.3-6.6 10.4 10.4 0 0 1 .6-2.6 19.2 19.2 0 0 1 1.1-2.7 17.792 17.792 0 0 1 5.3 3.6 2.792 2.792 0 0 0 2 .8 3.176 3.176 0 0 0 2-.8 2.792 2.792 0 0 0 .8-2 3.176 3.176 0 0 0-.8-2 24.193 24.193 0 0 0-6.3-4.4c.6-.9 1.4-1.7 2.1-2.6a22.906 22.906 0 0 1 6.9 4.3 2.792 2.792 0 0 0 2 .8 3.176 3.176 0 0 0 2-.8 2.792 2.792 0 0 0 .8-2 3.176 3.176 0 0 0-.8-2 22.993 22.993 0 0 0-6.7-4.6c.9-.9 1.8-1.6 2.7-2.4a21.737 21.737 0 0 1 6.7 4.2 2.792 2.792 0 0 0 2 .8 3.176 3.176 0 0 0 2-.8 2.792 2.792 0 0 0 .8-2 3.176 3.176 0 0 0-.8-2 23.273 23.273 0 0 0-5.2-3.8 14.934 14.934 0 0 1 6.6-1.8 7.314 7.314 0 0 1 5.5 2.3c1.1 1.2.5 4.3-.3 6.1a17.923 17.923 0 0 1-1.7 3zm-20 10.2a.5.5 0 0 1-.8 0 24.22 24.22 0 0 0-5.8-4l.6-1a22.409 22.409 0 0 1 6 4.1.746.746 0 0 1 0 .9zm6.7-6.7a.608.608 0 0 1-.8 0 21.168 21.168 0 0 0-6.8-4.4l.8-.9a24.112 24.112 0 0 1 6.8 4.5.6.6 0 0 1 0 .8zm6.6-7.4a.52.52 0 0 1 .2.4.758.758 0 0 1-.2.4.608.608 0 0 1-.8 0 21.037 21.037 0 0 0-6.1-4.1l1.1-.7a17.61 17.61 0 0 1 5.8 4z" data-name="Path 9"/>
</svg>
