<svg xmlns="http://www.w3.org/2000/svg" id="icon_departamentos_frios-laticinios" width="52" height="52" viewBox="0 0 52 52">
    <defs>
        <style>
            .cls-1{fill:none}
        </style>
    </defs>
    <g id="Group_24" data-name="Group 24">
        <path id="Path_10" d="M42.9 26.4a1.6 1.6 0 0 0 1.3-1.5v-2.2c0-.1-.1-.2-.2-.3l-.1-.1c-.1-.1-.2-.1-.3-.2L29.4 16a2.147 2.147 0 0 0-2.5.6 2.2 2.2 0 0 1-2 .7 2.073 2.073 0 0 1-1.5-1.5 1.1 1.1 0 0 1 0-.8 2.226 2.226 0 0 0-1.2-2.2l-2.9-1.2a2.335 2.335 0 0 0-2 0A15.357 15.357 0 0 0 8 22.5l-.1.4v15a2.689 2.689 0 0 0 2.7 2.7h16.1a1.508 1.508 0 0 0 1.5-1.2 1.32 1.32 0 0 1 1.4-1.1 1.41 1.41 0 0 1 1.4 1.1 1.6 1.6 0 0 0 1.5 1.3h9a2.689 2.689 0 0 0 2.7-2.7v-7.2a1.508 1.508 0 0 0-1.2-1.5 1.32 1.32 0 0 1-1.1-1.4 1.293 1.293 0 0 1 1-1.5zM18.5 13.3l2.9 1.2c.1 0 .1.1.1.2a3.812 3.812 0 0 0 .1 1.5 3.924 3.924 0 0 0 2.9 2.8 4.145 4.145 0 0 0 3.9-1.3.367.367 0 0 1 .3-.1l10 4.4H10a13.505 13.505 0 0 1 2.7-5 11.638 11.638 0 0 1 5.3-3.7.446.446 0 0 1 .5 0zm21.4 14.5a3.33 3.33 0 0 0 2.4 3.2v6.9a.789.789 0 0 1-.8.8h-8.7a3.33 3.33 0 0 0-3.2-2.4 3.33 3.33 0 0 0-3.2 2.4H10.5a.789.789 0 0 1-.8-.8V24h32.6v.6a3.33 3.33 0 0 0-2.4 3.2z" data-name="Path 10"/>
        <path id="Path_11" d="M35.4 34.5a2.7 2.7 0 1 0 2.7-2.7 2.628 2.628 0 0 0-2.7 2.7zm3.6 0a.8.8 0 1 1-.8-.8c.4-.1.8.3.8.8z" data-name="Path 11"/>
        <path id="Path_12" d="M17.4 29a3.9 3.9 0 1 0 3.9 3.9 3.9 3.9 0 0 0-3.9-3.9zm2 4a2 2 0 1 1-2-2 1.888 1.888 0 0 1 2 2z" data-name="Path 12"/>
        <path id="Path_13" d="M26.9 25.7a3.3 3.3 0 1 0 3.3 3.3 3.2 3.2 0 0 0-3.3-3.3zm1.5 3.4a1.4 1.4 0 1 1-1.4-1.4 1.367 1.367 0 0 1 1.4 1.4z" data-name="Path 13"/>
        <path id="Path_14" d="M32.7 33a.853.853 0 0 0-1.3 0c-.1.1-.1.2-.2.3a.854.854 0 0 0 0 .7 1.205 1.205 0 0 0 .5.5c.1 0 .2.1.4.1a.756.756 0 0 0 .4-.1c.1 0 .2-.1.3-.2a.908.908 0 0 0 .3-.7.6.6 0 0 0-.1-.4c-.1-.1-.2-.2-.3-.2z" data-name="Path 14"/>
        <path id="Path_15" d="M13.5 26.7c0-.1-.1-.2-.2-.3a.955.955 0 0 0-1-.2c-.1 0-.2.1-.3.2-.1.1-.1.2-.2.3a.972.972 0 0 0 .1.9.909.909 0 0 0 .8.4 1.235 1.235 0 0 0 .8-.4 1.388 1.388 0 0 0 0-.9z" data-name="Path 15"/>
        <path id="Path_16" d="M35.6 28.6a1.235 1.235 0 0 0 .8-.4.972.972 0 0 0 .1-.9.875.875 0 0 0-.9-.6.961.961 0 0 0-.9.6.972.972 0 0 0 .1.9 1.235 1.235 0 0 0 .8.4z" data-name="Path 16"/>
    </g>
</svg>
