<svg xmlns="http://www.w3.org/2000/svg" id="icon_departamentos_petshop" width="52" height="52" viewBox="0 0 52 52">
    <defs>
        <style>
            .cls-1{fill:none}
        </style>
    </defs>
    <g id="Group_36" data-name="Group 36">
        <path id="Path_39" d="M26 23.9a11.209 11.209 0 0 0-8.7 4.6 14.779 14.779 0 0 0-3.5 9 3.815 3.815 0 0 0 1.3 3.2 5.086 5.086 0 0 0 3.2 1 35.561 35.561 0 0 0 4.3-.5 27.969 27.969 0 0 1 3.4-.5 21.93 21.93 0 0 1 3.1.4c2.8.5 6 1.1 7.8-.4a3.815 3.815 0 0 0 1.3-3.2 14.779 14.779 0 0 0-3.5-9 11.209 11.209 0 0 0-8.7-4.6zM35.6 39c-1.1.9-3.8.4-6 0a26.686 26.686 0 0 0-3.5-.5 18.924 18.924 0 0 0-3.8.5c-2.1.4-4.8.9-5.8 0-.1-.1-.5-.4-.5-1.6a13.293 13.293 0 0 1 3-7.6 9.129 9.129 0 0 1 7.1-3.8c2.6 0 5 1.4 7.1 3.8a12.638 12.638 0 0 1 3 7.6c-.1 1.2-.5 1.5-.6 1.6z" data-name="Path 39"/>
        <path id="Path_40" d="M31.4 23.5a4.44 4.44 0 0 0 3.5-2.1 8.438 8.438 0 0 0 0-9 4.44 4.44 0 0 0-3.5-2.1 4.44 4.44 0 0 0-3.5 2.1 8.438 8.438 0 0 0 0 9 4.44 4.44 0 0 0 3.5 2.1zm-1.7-9.9a2.366 2.366 0 0 1 1.8-1.1 2.366 2.366 0 0 1 1.8 1.1 6.048 6.048 0 0 1 .9 3.3 6.047 6.047 0 0 1-.9 3.3 2.366 2.366 0 0 1-1.8 1.1 2.366 2.366 0 0 1-1.8-1.1 6.048 6.048 0 0 1-.9-3.3 6.048 6.048 0 0 1 .9-3.3z" data-name="Path 40"/>
        <path id="Path_41" d="M20.6 23.5a4.44 4.44 0 0 0 3.5-2.1 8.438 8.438 0 0 0 0-9 4.44 4.44 0 0 0-3.5-2.1 4.44 4.44 0 0 0-3.5 2.1 8.438 8.438 0 0 0 0 9 4.166 4.166 0 0 0 3.5 2.1zm-1.8-9.9a2.366 2.366 0 0 1 1.8-1.1 2.366 2.366 0 0 1 1.8 1.1 6.048 6.048 0 0 1 .9 3.3 6.048 6.048 0 0 1-.9 3.3 2.366 2.366 0 0 1-1.8 1.1 2.366 2.366 0 0 1-1.8-1.1 6.048 6.048 0 0 1-.9-3.3 6.048 6.048 0 0 1 .9-3.3z" data-name="Path 41"/>
        <path id="Path_42" d="M44 22.7a3.7 3.7 0 0 0-2.2-2.5 3.661 3.661 0 0 0-2.7.2 5.439 5.439 0 0 0-2.7 3.2 5.571 5.571 0 0 0-.1 3.6 3.7 3.7 0 0 0 2.2 2.5 4.253 4.253 0 0 0 1.1.2 2.822 2.822 0 0 0 1.5-.4 5.439 5.439 0 0 0 2.7-3.2 5.574 5.574 0 0 0 .2-3.6zm-2.2 2.9a3.3 3.3 0 0 1-1.6 2 1.645 1.645 0 0 1-1 .1c-.9-.3-1.3-1.9-.8-3.4a3.3 3.3 0 0 1 1.6-2 1.421 1.421 0 0 1 .6-.2.6.6 0 0 1 .4.1c1 .4 1.3 2 .8 3.4z" data-name="Path 42"/>
        <path id="Path_43" d="M15.7 27.2a6.33 6.33 0 0 0-.1-3.6 5.16 5.16 0 0 0-2.7-3.2 3.661 3.661 0 0 0-2.7-.2A3.953 3.953 0 0 0 8 22.7a6.33 6.33 0 0 0 .1 3.6 5.16 5.16 0 0 0 2.7 3.2 4.191 4.191 0 0 0 1.5.4 3.6 3.6 0 0 0 1.1-.2 3.421 3.421 0 0 0 2.3-2.5zm-2.9.5a1.553 1.553 0 0 1-1-.1 3.3 3.3 0 0 1-1.6-2c-.5-1.5-.2-3.1.8-3.4a1.553 1.553 0 0 1 1 .1 3.3 3.3 0 0 1 1.6 2c.5 1.5.1 3.1-.8 3.4z" data-name="Path 43"/>
    </g>
</svg>
