<?xml version="1.0" standalone="no"?>
<!DOCTYPE svg PUBLIC "-//W3C//DTD SVG 20010904//EN"
 "http://www.w3.org/TR/2001/REC-SVG-20010904/DTD/svg10.dtd">
<svg version="1.0" xmlns="http://www.w3.org/2000/svg"
 width="1280.000000pt" height="656.000000pt" viewBox="0 0 1280.000000 656.000000"
 preserveAspectRatio="xMidYMid meet">
<g transform="translate(0.000000,656.000000) scale(0.100000,-0.100000)"
fill="#000000" stroke="none">
<path d="M158 6457 c-64 -56 -126 -114 -137 -129 l-21 -26 147 -138 c226 -210
432 -378 661 -538 45 -31 82 -60 82 -64 0 -4 -26 -20 -58 -37 -84 -43 -179
-143 -231 -243 -97 -189 -119 -387 -80 -747 16 -152 24 -277 23 -405 0 -207
-9 -261 -70 -413 -25 -62 -33 -92 -25 -96 6 -4 44 1 84 12 95 25 251 19 352
-13 94 -29 251 -109 415 -210 301 -186 435 -239 625 -249 l120 -6 -2 -25 c-1
-14 -11 -88 -22 -165 -45 -319 -99 -1124 -75 -1126 37 -2 135 -7 284 -14 265
-12 518 16 822 91 78 19 143 32 145 30 3 -2 -1 -47 -7 -99 -26 -219 42 -451
188 -641 26 -34 114 -126 195 -206 245 -239 328 -358 363 -520 10 -44 23 -81
29 -84 7 -2 42 26 78 62 152 154 297 202 727 237 107 9 233 23 280 31 224 38
360 114 456 254 26 39 53 69 60 68 6 -2 50 -61 98 -132 214 -317 542 -708 713
-847 l74 -61 36 33 c50 49 246 268 338 379 107 129 267 344 360 484 42 64 81
116 86 116 5 0 40 -26 78 -57 124 -104 262 -173 438 -220 136 -36 349 -38 573
-4 251 38 384 22 498 -60 60 -43 75 -35 67 38 -8 70 8 191 36 276 39 119 92
191 283 387 186 190 259 285 305 394 22 51 26 78 28 171 l1 110 44 0 c24 -1
117 -8 208 -18 91 -9 233 -21 315 -27 222 -14 702 -24 765 -16 l55 7 -1 232
c-2 312 -45 690 -115 1010 -17 76 -29 145 -27 154 2 13 18 17 78 18 138 4 267
72 401 212 89 93 137 164 259 383 51 91 115 198 144 239 59 86 155 187 215
226 22 15 41 34 41 41 0 8 -17 25 -39 38 -24 16 -47 42 -62 73 -22 43 -24 61
-23 168 1 80 8 155 23 225 29 142 36 250 22 337 -13 76 -56 178 -96 225 -13
15 -22 34 -19 41 2 6 39 37 82 67 229 163 548 436 819 703 l132 129 -22 19
c-14 12 -38 18 -66 19 l-44 0 23 -25 24 -26 -25 -23 c-129 -124 -470 -425
-639 -566 -449 -373 -904 -645 -1346 -805 -69 -25 -149 -52 -177 -60 -29 -8
-77 -21 -107 -29 -30 -9 -120 -28 -200 -42 -80 -15 -160 -33 -179 -40 -19 -8
-42 -12 -51 -9 -10 3 -22 -1 -29 -9 -9 -11 9 -37 90 -132 415 -487 673 -1069
793 -1794 29 -176 40 -290 56 -575 6 -110 15 -237 19 -283 4 -54 3 -86 -4 -91
-14 -10 -759 4 -915 18 -497 45 -832 109 -1185 226 -214 70 -380 140 -535 222
-215 114 -490 301 -490 332 0 10 -6 23 -13 30 -31 25 -37 -9 -37 -209 0 -672
-269 -1329 -848 -2075 -146 -188 -424 -525 -433 -525 -16 0 -332 330 -443 464
-368 442 -668 967 -872 1526 -75 207 -124 381 -194 685 -53 235 -57 262 -44
282 16 26 18 49 4 58 -5 3 -89 -75 -187 -173 -301 -302 -572 -498 -941 -681
-399 -199 -839 -319 -1282 -351 -190 -13 -497 -13 -505 0 -11 18 39 723 71
995 81 692 274 1285 589 1805 42 69 113 187 158 263 45 75 90 140 100 143 12
4 17 13 15 27 -4 27 -15 27 -181 4 -149 -21 -398 -22 -554 -2 -489 64 -955
265 -1447 623 -231 169 -686 545 -686 568 0 7 62 60 139 118 174 133 177 136
120 135 -41 0 -52 -7 -161 -102z m11601 -919 c81 -110 98 -249 60 -493 -13
-89 -23 -197 -23 -265 0 -99 3 -122 23 -167 12 -28 31 -59 42 -69 10 -9 19
-21 19 -26 0 -5 -27 -34 -60 -65 -86 -79 -164 -187 -294 -407 -211 -354 -295
-452 -464 -536 -67 -33 -166 -60 -224 -60 l-37 0 -21 73 c-12 39 -23 78 -26
86 -6 18 13 31 46 31 96 0 247 69 335 151 82 77 109 121 204 327 115 249 174
324 304 380 26 12 47 28 47 36 0 8 -15 24 -33 35 -18 11 -44 39 -57 63 -35 61
-34 181 4 333 49 197 45 348 -10 458 -13 27 -24 54 -24 62 0 15 118 95 142 95
9 0 30 -19 47 -42z m-10750 -40 c39 -24 71 -48 71 -54 0 -7 -24 -26 -54 -42
-112 -64 -176 -192 -208 -421 -8 -55 -12 -238 -13 -511 -1 -456 -2 -466 -55
-540 -21 -29 -26 -50 -12 -50 4 -1 48 -2 97 -4 159 -6 270 -57 530 -246 264
-192 371 -242 520 -244 64 -1 105 4 143 18 30 10 58 14 62 10 9 -9 -20 -170
-34 -192 -5 -8 -42 -12 -110 -12 -185 0 -315 50 -651 250 -208 124 -314 176
-426 212 -62 19 -96 23 -207 23 l-134 0 5 25 c3 14 15 58 26 98 46 165 48 285
10 682 -10 113 -19 248 -19 300 1 322 99 561 281 689 40 28 80 51 90 51 10 0
50 -19 88 -42z m10552 -128 c37 -107 37 -217 0 -394 -44 -214 -41 -309 15
-391 14 -20 24 -41 22 -45 -2 -5 -25 -24 -53 -42 -75 -52 -140 -139 -207 -278
-152 -316 -149 -312 -223 -385 -50 -50 -92 -81 -145 -107 -76 -37 -190 -72
-217 -66 -8 2 -36 61 -67 143 -29 77 -81 200 -114 274 -34 74 -59 137 -57 140
3 3 18 -3 33 -13 15 -9 54 -30 87 -46 284 -138 603 38 622 343 7 102 -8 177
-53 266 -63 126 -182 235 -314 287 -39 15 -69 32 -67 37 2 6 55 34 119 62 157
70 314 151 456 235 91 54 120 67 129 57 6 -7 22 -41 34 -77z m-10319 -3 c158
-81 301 -141 473 -198 87 -29 153 -55 148 -60 -5 -5 -36 -14 -68 -20 -33 -6
-106 -33 -162 -60 -81 -39 -119 -65 -185 -126 -71 -66 -90 -92 -131 -173 -97
-194 -101 -360 -11 -531 45 -86 152 -189 236 -229 227 -108 454 -31 730 246
65 65 120 115 123 112 3 -3 -28 -88 -69 -190 -78 -193 -136 -369 -184 -552
l-28 -109 -60 -19 c-81 -27 -220 -29 -294 -4 -99 33 -222 104 -375 216 -239
174 -355 231 -500 246 -36 4 -68 10 -71 15 -2 4 5 36 18 71 25 74 29 208 14
588 -19 484 48 712 239 813 17 9 36 16 42 17 7 0 59 -24 115 -53z m943 -314
c23 -13 33 -10 -125 -38 -85 -14 -101 -15 -159 -1 -66 15 -79 22 -67 33 22 23
312 28 351 6z m640 7 c3 -5 -21 -44 -53 -87 -33 -43 -83 -116 -111 -162 -39
-64 -69 -99 -124 -144 -93 -76 -119 -89 -192 -94 -113 -8 -195 60 -195 161 1
67 26 121 82 173 54 49 87 67 181 99 65 22 112 30 302 53 100 12 103 12 110 1z
m-985 -50 c30 -10 55 -24 55 -30 0 -7 -24 -24 -53 -40 -51 -27 -54 -27 -115
-14 -117 24 -126 41 -44 79 62 30 85 30 157 5z m424 -9 c3 -5 -16 -25 -42 -45
-159 -125 -160 -318 -2 -399 50 -26 62 -28 132 -24 43 3 80 2 83 -2 8 -13 -61
-104 -123 -164 -83 -79 -171 -119 -272 -125 -250 -14 -440 178 -385 390 50
198 227 327 503 367 80 12 100 12 106 2z m8440 -6 c135 -35 237 -113 287 -220
78 -166 26 -350 -122 -424 -116 -58 -252 -39 -423 59 -72 41 -96 63 -84 76 3
2 25 -3 49 -12 68 -25 192 -23 254 5 104 46 159 127 159 231 0 114 -64 202
-187 255 -37 16 -67 33 -67 37 0 13 72 9 134 -7z m225 -15 c73 -35 141 -85
141 -105 0 -8 -8 -19 -17 -24 -14 -8 -9 -9 19 -4 35 5 38 3 67 -43 17 -26 31
-55 31 -64 0 -8 -16 -24 -35 -34 -19 -11 -33 -21 -31 -23 2 -3 18 3 36 12 17
9 38 14 45 11 28 -10 48 -210 25 -246 -8 -13 -14 -13 -42 -1 -18 7 -48 17 -67
21 -18 5 -37 12 -42 17 -9 9 7 138 21 165 6 11 5 18 -3 21 -7 3 -20 30 -30 60
-23 74 -86 156 -163 212 -35 26 -64 49 -64 51 0 13 54 0 109 -26z m-299 -54
c103 -52 155 -124 155 -216 0 -119 -120 -231 -247 -230 -118 1 -226 71 -356
232 -53 66 -108 134 -121 150 -31 37 -19 47 54 49 28 0 93 11 145 24 75 18
118 23 205 21 98 -1 116 -5 165 -30z m-8942 -8 c34 -13 62 -27 62 -33 0 -5
-22 -35 -49 -64 l-48 -55 -69 13 c-106 19 -144 31 -144 44 0 14 54 68 105 106
34 26 48 24 143 -11z m-175 -149 c33 -11 69 -19 82 -19 36 0 47 -22 31 -61 -7
-19 -17 -53 -21 -76 -4 -24 -10 -45 -13 -47 -4 -2 -68 -5 -142 -7 l-135 -3 1
37 c1 41 51 149 84 185 15 15 28 21 39 16 9 -3 42 -15 74 -25z m19 -239 l66 0
16 -52 c8 -29 13 -54 10 -57 -3 -3 -49 -15 -102 -27 -53 -12 -113 -29 -132
-37 l-35 -15 40 5 c22 2 73 11 114 19 118 23 127 21 190 -39 31 -29 67 -60 81
-68 l25 -17 -33 -46 c-18 -25 -51 -84 -73 -131 -22 -47 -44 -85 -49 -85 -47 0
-196 88 -188 112 2 5 50 48 107 96 99 82 126 112 103 112 -6 0 -59 -45 -118
-99 -87 -81 -111 -98 -125 -91 -26 14 -97 126 -110 173 -6 23 -15 52 -20 65
-10 27 -12 152 -2 178 5 15 16 16 87 10 45 -3 111 -6 148 -6z m9599 -77 c76
-39 76 -79 -2 -168 -35 -39 -53 -43 -89 -18 l-25 16 24 -26 c27 -30 23 -41
-27 -66 -68 -34 -95 -35 -133 -4 -19 15 -28 20 -20 11 21 -28 6 -48 -36 -48
-86 1 -183 42 -183 79 0 11 -3 10 -14 -4 -13 -18 -16 -18 -71 16 -65 39 -142
116 -128 130 5 5 41 -7 87 -31 94 -47 169 -64 251 -57 108 8 199 64 251 153
15 25 33 44 43 44 10 0 42 -12 72 -27z m-8701 -72 c-6 -12 -15 -21 -20 -21
-16 0 -11 32 8 53 14 16 17 17 20 4 2 -9 -2 -25 -8 -36z m-220 -160 c0 -26
-232 -201 -266 -201 -20 0 -18 7 26 92 38 72 44 78 78 83 20 3 60 12 87 19 63
17 75 18 75 7z m-291 -15 c30 -7 57 -18 59 -24 2 -7 -19 -52 -47 -101 -48 -84
-53 -89 -96 -100 -60 -15 -142 -14 -148 2 -6 17 26 78 86 165 54 79 56 80 146
58z m2955 -1333 c4 -37 16 -114 27 -172 28 -141 24 -293 -9 -366 -43 -94 -120
-152 -216 -162 -202 -21 -307 171 -208 382 29 61 53 89 205 236 115 111 176
164 183 158 6 -5 14 -39 18 -76z m3054 -203 c193 -127 302 -293 302 -462 0
-224 -256 -246 -353 -31 -36 80 -57 209 -65 391 -7 146 -6 172 5 172 2 0 52
-32 111 -70z m-3540 -262 c-1 -105 18 -154 82 -211 130 -117 325 -80 446 84
43 59 54 53 54 -31 0 -250 -160 -449 -377 -467 -163 -13 -295 72 -344 222 -21
67 -15 189 14 273 26 75 101 212 116 212 5 0 9 -37 9 -82z m-78 63 c0 -5 -18
-42 -39 -83 -21 -40 -47 -97 -56 -126 -14 -43 -26 -60 -64 -87 -55 -41 -86
-46 -76 -12 13 42 96 172 156 245 55 67 79 86 79 63z m3966 -93 c108 -147 164
-284 164 -402 0 -47 -5 -79 -15 -92 -8 -12 -12 -24 -8 -27 10 -10 -44 -93 -83
-127 -52 -45 -97 -62 -166 -61 -117 0 -239 85 -303 211 -15 30 -36 95 -46 145
-19 92 -25 205 -11 205 4 0 20 -29 36 -64 58 -136 191 -208 303 -165 125 47
152 214 68 422 -16 38 17 14 61 -45z m164 -77 c89 -91 180 -224 180 -266 0
-11 -11 -15 -37 -16 l-38 -1 42 -11 c23 -7 47 -17 54 -24 25 -25 50 -185 31
-197 -10 -6 -188 55 -201 70 -12 12 10 174 23 174 5 0 2 8 -6 18 -9 9 -19 36
-23 60 -4 23 -31 91 -61 150 -29 59 -54 108 -54 110 0 1 5 2 11 2 7 0 42 -31
79 -69z m195 3 c171 -65 340 -116 504 -154 68 -16 128 -35 133 -42 5 -7 7 -65
5 -128 -3 -98 -9 -127 -35 -197 -34 -91 -116 -224 -183 -294 -24 -25 -94 -87
-156 -137 -148 -123 -195 -183 -209 -271 -7 -47 -9 -47 -96 -25 -82 21 -179
15 -368 -26 -242 -52 -361 -50 -530 5 -88 29 -206 96 -270 152 l-44 40 76 154
c68 137 164 367 198 471 15 49 28 56 36 21 47 -208 106 -319 229 -431 237
-217 549 -198 709 41 57 88 86 188 86 304 0 186 -68 347 -214 509 -48 54 -60
82 -28 69 9 -4 80 -31 157 -61z m-4495 50 c0 -3 -13 -24 -29 -47 -42 -62 -96
-174 -115 -239 -83 -290 48 -578 304 -664 76 -26 234 -26 310 0 209 70 351
238 396 466 13 65 15 112 11 202 -4 64 -3 119 2 122 9 6 9 7 77 -174 62 -167
146 -354 241 -541 43 -85 81 -162 85 -171 11 -27 -47 -130 -102 -182 -60 -56
-151 -101 -246 -121 -38 -8 -148 -20 -244 -25 -283 -17 -428 -48 -599 -126
-84 -39 -101 -41 -101 -16 0 33 -47 117 -88 158 -45 45 -110 88 -267 179 -183
106 -273 227 -311 414 -20 101 -17 418 4 444 7 8 50 29 95 47 120 48 348 159
457 223 88 52 120 66 120 51z m3640 -215 c0 -76 22 -197 46 -254 13 -33 13
-41 0 -78 -8 -23 -17 -55 -21 -71 -6 -26 -8 -28 -22 -14 -48 49 -77 285 -49
407 9 41 19 78 22 83 14 22 24 -10 24 -73z m-3588 -46 c3 -62 10 -92 35 -145
l31 -67 -45 -63 c-24 -35 -58 -89 -74 -120 -16 -31 -33 -59 -38 -62 -15 -9
-39 32 -61 103 -32 103 -30 111 56 201 43 44 75 83 72 86 -3 2 -33 -27 -68
-66 -34 -38 -66 -70 -71 -70 -15 0 -10 99 7 160 15 55 18 58 77 88 34 17 65
31 68 31 4 1 9 -34 11 -76z m5247 -4 c36 -6 70 -15 75 -20 16 -14 24 -111 15
-176 -19 -139 -84 -237 -318 -478 -183 -188 -232 -255 -284 -385 -29 -74 -47
-162 -47 -232 0 -58 -14 -67 -62 -42 -95 49 -253 57 -475 23 -258 -40 -462
-28 -648 38 -148 53 -405 204 -405 238 0 15 67 132 81 140 4 3 38 -22 76 -56
76 -67 207 -137 313 -165 110 -30 266 -24 440 16 119 27 167 33 265 34 115 1
123 0 189 -31 37 -18 73 -30 78 -27 6 4 7 24 4 48 -9 57 16 133 59 184 20 23
89 84 153 136 160 128 238 223 307 369 49 103 68 186 68 300 0 112 -7 107 116
86z m-5999 -73 c0 -3 -7 -35 -17 -73 -24 -101 -22 -295 6 -396 56 -210 146
-312 395 -448 111 -60 207 -142 238 -202 11 -22 22 -64 25 -93 4 -40 10 -54
22 -54 8 0 50 18 93 40 189 99 306 127 583 140 250 13 343 29 452 80 87 40
172 115 206 180 l19 35 24 -30 c40 -49 41 -72 6 -140 -59 -112 -177 -204 -325
-250 -102 -33 -218 -51 -447 -70 -356 -30 -535 -83 -665 -197 -25 -22 -50 -38
-56 -36 -6 2 -23 35 -38 74 -54 137 -130 235 -371 474 -195 193 -280 328 -330
520 -28 108 -40 355 -18 382 21 28 198 84 198 64z m1530 -63 c0 -89 -64 -273
-94 -273 -11 0 -16 9 -16 29 0 16 -5 52 -12 80 -11 50 -11 50 23 88 19 21 45
55 57 76 13 20 28 37 33 37 5 0 9 -17 9 -37z m-646 -135 c54 -43 55 -44 45
-89 -16 -70 -68 -224 -83 -244 -14 -19 -15 -19 -50 -2 -52 24 -126 96 -126
121 0 23 147 246 162 246 6 0 29 -15 52 -32z m4246 -24 c47 -20 90 -41 97 -46
18 -14 -3 -118 -33 -166 l-15 -22 -42 21 c-23 12 -71 41 -107 65 l-65 45 45
-42 c25 -23 69 -57 98 -77 31 -21 52 -42 52 -53 0 -25 -97 -122 -139 -139 -31
-13 -34 -12 -52 11 -11 13 -42 69 -70 124 -27 55 -47 87 -44 70 4 -16 28 -74
54 -128 55 -111 54 -115 -32 -124 -70 -7 -141 3 -166 25 -19 16 -19 24 -11
131 6 72 14 119 22 128 8 7 39 14 71 16 31 1 57 5 57 9 0 11 83 68 92 62 4 -3
8 1 8 9 0 17 49 109 64 119 6 4 16 6 21 4 6 -3 48 -21 95 -42z m-3738 -40 c27
-79 24 -127 -13 -169 -37 -42 -68 -60 -80 -48 -5 5 -13 42 -19 83 -5 41 -13
87 -16 102 -5 24 0 31 43 57 26 17 53 29 58 28 6 -2 18 -26 27 -53z m3124
-114 c-4 -43 -3 -58 3 -45 5 11 10 30 10 41 2 39 25 48 68 26 21 -11 50 -22
65 -26 l27 -6 -6 -123 c-3 -67 -8 -125 -12 -129 -23 -26 -200 119 -263 216
-40 63 -46 98 -27 157 22 64 28 65 86 7 l54 -53 -5 -65z m-3481 107 l50 -13 8
-70 c4 -38 6 -105 5 -149 l-3 -80 -103 1 c-138 0 -144 6 -102 99 17 38 40 100
50 137 27 99 21 94 95 75z m201 -9 c9 -14 44 -185 44 -215 0 -16 -13 -28 -53
-47 -29 -13 -66 -26 -82 -28 l-30 -3 3 140 c2 77 5 142 8 144 2 3 23 8 47 12
23 3 45 7 49 8 4 0 10 -4 14 -11z"/>
<path d="M557 6523 c-26 -19 -59 -55 -73 -79 -23 -39 -26 -53 -22 -113 4 -84
36 -133 107 -164 38 -17 53 -18 91 -10 25 6 53 13 63 18 15 6 17 0 17 -54 0
-74 24 -128 72 -163 28 -20 44 -23 114 -22 l81 1 0 -61 c0 -70 17 -111 63
-150 56 -47 129 -48 196 -3 20 15 41 24 44 22 4 -3 10 -19 14 -36 23 -115 153
-174 260 -119 45 22 56 19 57 -18 3 -108 105 -191 201 -163 20 7 58 27 83 46
25 19 49 35 54 35 5 0 12 -12 16 -27 12 -50 55 -104 98 -124 80 -36 160 -19
229 48 27 26 39 32 42 22 2 -8 9 -30 15 -49 27 -87 90 -139 170 -140 47 0 111
40 141 89 29 49 43 51 60 11 18 -44 92 -108 135 -116 100 -18 173 18 227 112
17 30 35 53 40 52 6 -2 16 -20 23 -41 7 -20 20 -48 29 -62 20 -30 14 -45 -17
-45 -40 -1 -104 -37 -133 -76 -27 -34 -29 -44 -28 -116 l1 -78 -32 0 c-58 0
-130 -28 -168 -66 -46 -47 -61 -91 -53 -163 13 -122 14 -114 -24 -124 -43 -11
-88 -51 -106 -94 -19 -43 -18 -117 2 -154 20 -39 12 -59 -23 -59 -41 0 -110
-38 -140 -77 -19 -24 -28 -50 -31 -88 -5 -66 9 -111 53 -163 l35 -40 -54 -31
c-62 -35 -90 -70 -107 -134 -15 -54 -2 -113 37 -164 13 -17 24 -36 24 -42 0
-6 -22 -22 -50 -36 -88 -45 -131 -147 -100 -240 15 -45 106 -139 143 -149 15
-3 27 -10 27 -15 0 -4 -27 -145 -60 -312 -33 -167 -60 -309 -60 -316 0 -18 36
-16 142 7 51 12 95 17 100 12 11 -11 -12 -66 -50 -118 -57 -78 -168 -106 -257
-65 -207 95 -179 380 48 484 26 12 47 26 47 32 0 5 -17 19 -37 30 -73 39 -102
119 -68 185 15 30 35 45 90 68 30 12 30 12 -13 8 -79 -8 -124 -59 -124 -141 0
-48 13 -77 49 -117 14 -14 24 -31 22 -36 -2 -5 -24 -25 -49 -44 -96 -73 -148
-180 -137 -284 14 -132 126 -234 260 -234 32 0 72 6 91 14 46 19 100 69 131
121 14 25 27 45 28 45 2 0 20 -16 41 -35 97 -89 262 -61 323 54 31 59 29 58
61 28 104 -100 266 -58 303 78 12 43 27 44 64 5 37 -39 105 -65 147 -56 68 13
138 90 138 152 1 44 15 46 69 9 122 -81 251 -21 251 117 0 25 3 48 6 51 4 3
26 -5 49 -18 125 -74 264 17 265 174 0 47 2 52 18 46 31 -13 90 -18 127 -11
66 13 144 106 145 174 0 21 2 22 68 16 59 -5 73 -3 112 18 30 16 55 41 75 73
28 46 30 54 29 142 -1 51 2 93 6 93 4 0 15 -11 23 -24 9 -13 32 -34 51 -46 41
-25 44 -39 16 -65 -54 -49 -46 -150 15 -204 34 -29 46 -61 25 -61 -16 0 -67
-86 -74 -125 -13 -70 29 -151 99 -191 20 -11 20 -12 1 -44 -28 -49 -37 -99
-25 -145 14 -52 76 -112 126 -121 21 -4 46 -11 56 -16 16 -8 16 -11 -4 -50
-31 -60 -24 -149 16 -213 31 -49 89 -88 148 -100 23 -5 27 -10 22 -23 -5 -9
-14 -39 -21 -66 -38 -137 60 -258 220 -273 37 -3 66 -10 66 -14 0 -5 -13 -23
-29 -41 -42 -49 -51 -71 -51 -125 1 -108 68 -184 172 -191 36 -3 62 -10 64
-17 3 -7 -5 -33 -17 -57 -15 -29 -24 -66 -26 -118 -4 -67 -2 -81 24 -130 36
-69 95 -109 177 -117 53 -5 57 -8 50 -27 -15 -46 -15 -141 0 -178 41 -97 127
-152 236 -151 154 1 261 115 276 297 l7 76 63 -6 c149 -15 247 85 215 219 -21
89 -21 88 30 101 119 31 179 144 134 253 -23 54 -20 63 23 63 72 1 157 58 181
123 19 50 13 120 -14 171 -14 26 -25 51 -25 56 0 6 20 15 45 21 101 25 168
111 168 213 0 55 -18 99 -52 130 -30 27 -26 43 13 56 67 22 126 103 126 174 0
39 -24 98 -57 135 -37 44 -37 43 27 84 42 26 80 97 80 147 -1 51 -32 112 -76
148 -41 34 -41 35 8 61 40 22 75 71 84 117 10 54 -4 102 -44 146 l-36 40 23
19 c31 25 44 20 52 -18 10 -49 42 -95 88 -128 38 -27 51 -30 112 -29 l69 0 0
-50 c1 -94 60 -178 136 -192 35 -6 99 -1 140 11 20 6 23 1 33 -47 14 -63 41
-106 89 -139 29 -20 48 -24 107 -24 61 0 77 4 113 28 23 15 46 27 50 27 5 0
15 -27 21 -60 27 -137 154 -178 270 -85 24 19 47 33 51 30 4 -3 11 -21 15 -42
16 -89 72 -151 153 -173 60 -16 135 7 182 55 18 19 39 35 46 35 6 0 14 -23 17
-56 7 -68 27 -101 75 -121 78 -32 161 -15 249 52 25 19 49 32 53 28 4 -5 12
-27 19 -50 28 -100 125 -159 221 -133 26 7 61 29 90 56 l48 45 39 -42 c58 -62
105 -83 188 -83 85 0 135 23 189 86 92 107 82 256 -26 371 -39 42 -39 42 -18
57 59 41 95 79 111 115 22 48 24 123 5 168 -18 42 -71 92 -118 112 -21 8 -38
17 -38 20 0 3 16 25 35 50 56 75 59 156 8 229 -16 22 -46 49 -68 61 -70 37
-68 34 -40 71 68 89 72 196 9 281 -34 45 -83 72 -154 85 -69 12 -68 7 -35 100
30 85 4 167 -71 224 -34 26 -45 29 -111 28 -77 0 -82 4 -58 46 8 14 14 49 15
79 0 100 -61 167 -163 178 l-55 6 5 71 c6 74 -6 114 -44 158 -20 23 -11 44 24
52 44 12 92 54 116 102 21 43 39 55 53 33 13 -22 109 -59 154 -59 86 1 173 63
200 144 6 20 15 36 20 36 5 0 30 -11 56 -25 56 -30 94 -31 151 -5 44 20 79 64
90 113 8 37 20 41 72 22 139 -49 276 32 296 175 8 55 13 58 71 34 48 -20 122
-13 169 16 41 25 73 75 89 136 12 49 11 49 83 28 62 -18 115 -8 163 32 39 33
50 55 59 113 l6 46 66 -3 c132 -7 229 74 229 190 l0 43 108 0 c93 0 113 3 150
23 118 63 181 193 156 321 -4 21 -12 31 -24 31 -16 0 -17 -8 -13 -64 8 -89
-15 -152 -73 -206 -58 -54 -103 -71 -179 -72 -69 0 -160 32 -153 54 3 7 55 42
116 78 61 36 114 72 117 80 4 10 -14 34 -57 72 -56 51 -68 57 -106 58 l-43 0
60 -50 c33 -27 62 -54 65 -59 8 -12 -3 -20 -139 -102 -65 -39 -256 -159 -424
-267 -432 -277 -606 -379 -846 -497 -409 -202 -726 -288 -1106 -302 -172 -6
-330 5 -465 33 -59 12 -94 28 -176 80 -201 126 -441 240 -668 315 -131 43
-130 42 -85 135 14 28 25 60 25 70 0 27 27 125 37 135 5 5 47 -10 94 -33 46
-23 145 -67 219 -98 l135 -57 -1 -41 c-1 -48 -49 -135 -79 -141 -29 -5 -215
90 -215 110 0 12 -6 16 -19 12 -10 -2 -38 5 -62 17 -24 13 -42 20 -39 17 13
-13 101 -77 106 -77 3 0 36 -18 74 -41 189 -112 462 -204 725 -245 148 -23
460 -23 604 0 279 44 548 141 853 307 277 151 1147 689 1148 709 0 27 -67 72
-102 68 l-32 -3 37 -25 c20 -14 37 -30 37 -37 0 -6 -64 -50 -142 -99 -79 -48
-159 -97 -178 -110 -134 -87 -335 -203 -342 -196 -5 5 1 44 12 88 34 131 37
370 5 381 -7 2 -11 -51 -11 -154 0 -138 -3 -170 -26 -256 -15 -54 -28 -100
-30 -102 -1 -1 -45 -28 -96 -59 -97 -59 -130 -70 -116 -38 48 109 69 211 80
390 6 108 8 113 33 125 35 17 33 41 -4 47 -21 4 -31 11 -33 28 -5 31 -30 27
-34 -5 l-3 -28 -95 0 c-139 0 -211 12 -217 36 -6 21 -18 25 -28 9 -8 -13 -51
-13 -76 0 -10 6 -56 9 -102 8 l-82 -3 150 -38 c83 -20 200 -43 262 -50 61 -6
113 -16 114 -22 1 -5 -41 -34 -92 -64 -52 -30 -191 -115 -309 -191 -451 -287
-640 -369 -921 -400 -196 -22 -439 13 -719 102 -130 42 -452 167 -468 182 -17
17 -5 135 14 143 13 5 72 -25 107 -56 10 -8 32 -20 50 -27 18 -7 91 -37 163
-68 281 -120 549 -160 804 -121 295 44 472 164 511 344 20 97 -28 181 -139
241 -46 25 -66 30 -116 29 -34 -1 -53 -3 -43 -6 28 -7 19 -26 -28 -55 -58 -35
-105 -115 -105 -179 0 -67 40 -141 97 -178 26 -17 52 -31 59 -31 7 0 19 -3 28
-6 9 -3 16 -1 16 5 0 6 -6 11 -13 11 -27 0 -103 60 -124 97 -30 54 -36 95 -22
142 22 73 94 127 187 137 41 5 52 2 88 -24 47 -34 84 -102 84 -153 0 -88 -90
-197 -212 -256 -63 -31 -224 -83 -258 -83 -26 0 -97 77 -126 136 -67 137 -43
293 63 399 l45 45 -30 0 c-22 0 -37 -10 -61 -40 -118 -147 -118 -345 -1 -473
28 -30 50 -59 50 -65 0 -15 -120 -26 -204 -19 -66 6 -73 8 -104 43 -131 151
-127 369 10 507 l47 47 -32 0 c-26 -1 -38 -9 -64 -43 -114 -152 -121 -336 -18
-477 30 -41 34 -51 21 -56 -33 -12 -304 62 -338 93 -35 31 -60 122 -56 203 6
130 88 264 166 273 20 2 -26 3 -103 2 -117 -1 -155 -6 -235 -28 -52 -15 -112
-27 -132 -27 -36 0 -38 2 -38 30 0 25 -4 30 -24 30 l-23 0 -6 -192 c-5 -203
-19 -304 -62 -453 -108 -371 -404 -704 -802 -904 -358 -178 -843 -262 -1347
-232 -275 16 -332 25 -436 71 -459 202 -769 544 -929 1025 -65 195 -101 405
-101 587 0 98 0 98 -25 98 -23 0 -25 -3 -25 -52 0 -29 5 -111 11 -181 7 -76 8
-132 3 -137 -11 -11 -191 -36 -199 -28 -3 3 7 32 24 64 43 85 57 171 41 262
-11 67 -14 72 -37 72 -22 0 -24 -3 -18 -22 32 -104 37 -144 25 -209 -13 -74
-60 -166 -93 -179 -19 -7 -180 -30 -215 -30 -21 0 -13 18 32 80 57 78 86 163
86 256 0 86 -6 104 -32 104 -16 0 -19 -4 -14 -22 4 -13 10 -53 13 -89 9 -112
-40 -236 -123 -309 l-35 -30 -149 0 c-105 0 -150 3 -150 11 0 6 16 30 36 52
54 59 94 152 100 234 7 84 -5 147 -30 151 -15 3 -16 -1 -9 -35 11 -53 9 -150
-6 -200 -15 -53 -80 -151 -122 -182 -38 -28 -77 -29 -241 -5 -118 17 -214 44
-211 59 1 5 21 15 45 21 59 15 100 37 138 76 44 44 63 92 62 158 0 70 -15 110
-41 110 -19 0 -19 -2 -5 -35 41 -98 -7 -213 -111 -268 -56 -29 -174 -30 -205
-2 -70 63 -96 171 -61 250 25 58 25 55 2 55 -29 0 -55 -86 -48 -160 15 -171
168 -270 472 -305 33 -4 68 -14 77 -22 13 -12 21 -12 39 -3 15 9 63 10 168 5
245 -11 509 16 709 72 51 14 94 24 97 22 5 -5 47 -185 50 -214 1 -11 9 -36 17
-55 31 -69 52 -150 42 -160 -5 -5 -44 -15 -87 -22 -90 -14 -94 -12 -126 67
-24 59 -27 48 -6 -21 8 -27 11 -52 6 -57 -10 -10 -120 -27 -177 -27 -48 0 -78
26 -99 87 -8 21 -14 31 -15 23 0 -8 8 -36 17 -62 9 -26 14 -51 10 -54 -4 -4
-66 -7 -138 -8 -130 -1 -132 -1 -151 25 -10 14 -25 43 -33 65 -8 21 -14 31
-15 22 0 -10 7 -38 16 -64 13 -39 13 -48 2 -55 -15 -10 -140 -10 -212 -1 -43
6 -53 12 -70 41 -11 19 -26 55 -32 80 -9 33 -13 38 -13 20 -1 -14 6 -48 14
-75 8 -28 11 -52 6 -57 -9 -9 -264 8 -302 19 -24 7 -62 82 -75 149 l-12 60 -1
-51 c-1 -28 6 -71 14 -94 8 -23 15 -44 15 -46 0 -8 -80 -3 -165 11 -113 18
-129 36 -164 185 -10 43 -10 41 -6 -25 2 -38 7 -82 11 -97 7 -33 -3 -35 -85
-17 -46 10 -53 15 -86 67 -20 31 -44 86 -55 121 -21 68 -27 181 -9 181 5 0 53
-20 105 -45 51 -25 98 -45 104 -45 5 0 15 -9 22 -19 6 -10 17 -17 24 -14 7 2
69 -14 138 -36 123 -39 316 -83 429 -96 32 -4 64 -14 72 -21 8 -8 15 -10 17
-4 2 8 49 8 148 1 80 -6 150 -10 155 -9 6 0 78 2 162 3 84 2 156 5 160 8 8 5
180 29 223 32 14 0 32 4 40 7 8 4 41 12 73 18 32 7 56 14 54 16 -3 3 -94 -3
-203 -13 -281 -25 -774 -25 -934 0 -310 48 -572 139 -833 290 -292 169 -346
198 -420 228 -43 17 -76 36 -74 43 2 6 57 26 123 46 l119 35 -55 3 c-35 2 -77
-4 -120 -17 -94 -30 -114 -31 -118 -3 -4 28 -42 31 -42 2 0 -10 -10 -28 -22
-39 -20 -19 -20 -22 -5 -39 11 -11 17 -36 17 -63 0 -62 16 -198 36 -306 10
-51 15 -96 11 -100 -12 -11 -198 69 -212 92 -26 38 -56 222 -58 351 -1 68 -5
124 -9 124 -3 0 -9 -23 -13 -51 -11 -79 8 -233 43 -347 10 -34 12 -56 6 -62
-7 -7 -42 6 -104 38 -94 47 -95 47 -129 115 -41 81 -52 182 -28 260 14 44 14
47 -3 47 -23 0 -30 -27 -30 -119 0 -50 7 -97 22 -143 12 -37 19 -71 15 -74 -3
-4 -89 39 -189 96 -101 57 -186 105 -190 107 -5 2 -8 1 -8 -4 1 -12 111 -88
254 -175 524 -318 1279 -548 1996 -608 303 -25 632 -20 939 16 122 14 135 14
151 -1 16 -15 18 -14 22 3 4 15 20 22 70 31 96 16 107 15 114 -15 7 -29 -7
-44 -41 -44 -11 0 -93 -18 -182 -39 -303 -74 -514 -100 -853 -108 -251 -6
-454 4 -665 33 -682 92 -1312 336 -1723 666 -123 98 -262 227 -262 243 0 7 36
39 80 71 44 31 80 59 80 61 0 1 -17 3 -37 3 -34 0 -44 -7 -90 -62 -29 -34 -53
-70 -53 -80 0 -9 21 -42 46 -73 25 -31 44 -64 42 -73 -2 -9 -25 -32 -52 -49
-87 -59 -178 -37 -218 53 -53 120 42 246 204 273 53 9 53 9 -27 9 -76 1 -82
-1 -128 -35z m7856 1 c3 -3 -8 -34 -26 -68 -42 -84 -49 -192 -17 -285 11 -35
18 -67 13 -72 -4 -4 -55 14 -113 39 -116 52 -130 67 -130 144 0 53 30 140 61
177 25 30 195 82 212 65z m-268 -64 c4 -6 -1 -33 -10 -61 -12 -34 -16 -72 -13
-115 4 -59 2 -64 -17 -64 -11 0 -31 7 -43 16 -20 14 -22 23 -22 114 0 95 1
100 23 104 47 11 62 14 69 15 4 0 10 -4 13 -9z m-6293 -44 c35 -13 96 -40 137
-60 l73 -37 -6 -77 c-8 -94 5 -201 35 -293 12 -38 20 -71 16 -75 -7 -7 -278
84 -294 100 -15 14 -29 105 -43 275 -11 132 -7 191 11 191 5 0 37 -11 71 -24z
m8775 -13 c11 -29 -15 -227 -46 -344 -16 -63 -31 -125 -33 -138 -2 -19 -28
-38 -138 -97 -74 -41 -139 -74 -144 -74 -10 0 -4 39 19 120 20 69 30 244 18
290 -8 31 -10 26 -16 -54 -3 -49 -19 -154 -34 -234 l-27 -145 -71 -32 c-151
-69 -348 -136 -361 -122 -4 3 9 48 28 99 33 87 73 236 65 244 -2 2 -14 -29
-26 -69 -38 -120 -112 -287 -132 -297 -24 -13 -240 -50 -293 -50 -24 0 -46 3
-49 7 -4 3 18 32 48 64 62 65 105 146 105 199 0 19 4 40 8 47 4 6 46 28 92 48
47 20 118 54 158 76 41 22 80 38 87 35 8 -3 17 3 20 12 7 19 357 242 380 242
8 0 15 4 15 10 0 16 279 180 308 180 7 0 15 -7 19 -17z m-8398 -183 l119 -70
4 -103 c4 -104 5 -109 76 -249 7 -15 -47 -7 -154 23 -60 16 -114 35 -121 42
-26 28 -74 211 -80 308 -6 105 -1 134 22 125 8 -3 68 -37 134 -76z m-1321 -52
c48 -40 101 -83 117 -95 l30 -21 -20 -28 c-87 -116 -265 -60 -265 84 0 54 28
132 47 132 3 0 44 -33 91 -72z m10785 37 c35 -74 14 -138 -60 -185 -83 -53
-181 -49 -223 10 -11 15 -20 33 -20 38 0 14 249 172 270 172 9 0 24 -16 33
-35z m-314 -199 c13 -20 21 -50 21 -76 0 -115 -122 -173 -228 -108 -37 22 -69
65 -58 76 22 21 214 141 228 141 9 1 26 -14 37 -33z m-10160 -53 c64 -37 118
-68 120 -69 12 -10 -16 -62 -57 -104 -42 -44 -53 -50 -88 -50 -51 1 -118 31
-140 66 -12 17 -18 46 -18 78 0 63 29 146 51 146 9 0 68 -30 132 -67z m9881
-170 c0 -78 -52 -143 -131 -164 -40 -11 -53 -10 -93 5 -56 21 -93 63 -74 82 7
7 69 47 138 88 125 76 125 76 143 55 10 -13 17 -38 17 -66z m-9580 18 c142
-65 151 -77 100 -134 -106 -121 -270 -60 -270 100 0 44 20 94 38 92 4 0 63
-26 132 -58z m7105 16 l110 -33 3 -43 c2 -23 -3 -64 -11 -92 -8 -27 -11 -49
-6 -49 15 0 28 37 35 96 4 33 10 64 15 70 6 7 33 6 91 -2 46 -7 110 -13 143
-14 33 0 66 -4 74 -9 19 -12 9 -97 -19 -150 -11 -23 -18 -41 -16 -41 12 0 57
91 67 138 14 59 11 57 128 67 41 4 117 17 170 31 52 13 99 20 104 15 10 -10
-10 -94 -36 -146 -22 -45 -42 -72 -95 -129 l-35 -39 -151 6 c-123 5 -152 9
-162 22 -9 12 -14 13 -19 4 -10 -15 -96 -6 -238 26 -140 32 -357 104 -364 121
-3 8 6 26 18 42 22 25 48 77 63 125 7 22 1 22 131 -16z m-6778 -143 c76 -26
142 -51 147 -55 13 -11 -9 -50 -58 -106 -65 -74 -120 -90 -185 -55 -48 26 -71
73 -71 149 0 56 12 113 24 113 3 0 67 -21 143 -46z m6198 -24 c456 -171 825
-394 1154 -697 494 -456 842 -1129 945 -1828 23 -157 48 -512 37 -519 -4 -3
-38 2 -76 9 -39 8 -117 21 -175 30 -225 36 -530 122 -1025 288 -350 118 -478
168 -680 267 -398 195 -671 437 -898 798 -84 133 -197 355 -248 487 -23 61
-73 170 -111 243 -37 74 -68 135 -68 137 0 7 160 67 171 63 7 -2 26 -62 44
-133 94 -372 298 -717 602 -1017 286 -284 563 -449 983 -588 115 -38 1147
-337 1263 -365 l27 -7 0 60 c0 83 -25 269 -56 415 -114 542 -396 1079 -778
1487 -102 109 -242 239 -342 319 -43 34 -91 73 -106 87 -14 13 -29 24 -33 24
-3 0 -32 17 -63 39 -207 139 -411 244 -642 328 -52 19 -99 38 -103 43 -15 14
18 80 40 80 2 0 65 -22 138 -50z m2719 4 c3 -9 6 -39 6 -67 0 -127 -103 -215
-225 -193 -41 8 -115 75 -115 104 0 12 44 40 148 93 81 43 154 77 163 78 9 1
20 -6 23 -15z m-6264 -105 c24 -46 16 -54 -60 -63 -243 -30 -590 -217 -871
-470 -121 -109 -135 -123 -230 -236 -353 -420 -604 -1010 -718 -1686 -51 -302
-51 -463 -1 -194 23 121 35 154 51 145 11 -8 11 -3 -1 30 -11 30 22 204 47
243 8 13 12 30 9 37 -7 20 57 258 71 262 7 3 28 -20 46 -49 19 -29 64 -90 100
-136 l66 -83 -16 -34 c-21 -44 -12 -53 30 -30 l33 18 95 -72 c54 -42 140 -95
201 -124 69 -34 107 -57 105 -66 -1 -9 -52 -33 -124 -59 l-121 -45 -69 28
c-37 14 -94 43 -127 62 -58 36 -168 137 -220 203 l-27 35 18 -35 c10 -19 56
-73 103 -120 66 -66 105 -95 172 -130 48 -25 88 -49 88 -53 0 -4 -16 -15 -35
-23 -43 -18 -213 -64 -237 -64 -26 0 -124 86 -159 140 -36 56 -43 62 -29 24
14 -36 62 -103 99 -138 16 -16 28 -33 25 -37 -3 -5 -24 -13 -47 -20 -59 -15
-137 -50 -137 -60 0 -31 178 11 472 110 302 102 514 189 745 303 725 358 1188
808 1364 1327 24 70 69 281 69 323 0 22 119 -15 135 -42 4 -6 -7 -43 -23 -83
-17 -40 -49 -126 -72 -192 -84 -243 -269 -578 -427 -775 -371 -462 -907 -780
-1703 -1010 -289 -83 -777 -197 -790 -184 -5 5 0 52 11 104 11 52 49 248 85
435 137 713 229 1034 399 1380 117 239 241 419 405 589 157 162 301 266 550
393 115 60 134 66 260 88 139 25 249 53 310 79 41 17 52 11 80 -45z m-2295 18
c149 -38 156 -45 111 -121 -77 -131 -246 -115 -285 27 -16 55 0 127 27 127 9
0 76 -15 147 -33z m5735 -16 c101 -37 105 -39 104 -67 -2 -40 -49 -143 -69
-150 -18 -7 -224 85 -232 103 -4 9 83 154 91 153 1 0 48 -18 106 -39z m-5395
-55 c55 -9 115 -19 133 -22 39 -6 40 -21 12 -98 -29 -77 -76 -116 -138 -116
-90 0 -142 59 -150 172 -5 69 2 91 25 84 10 -2 63 -12 118 -20z m5682 -66 c68
-33 126 -67 129 -75 11 -28 -6 -83 -43 -139 -20 -30 -42 -57 -48 -60 -7 -2
-54 22 -106 53 -53 31 -112 67 -132 79 l-37 21 36 68 c48 89 63 113 71 113 3
0 62 -27 130 -60z m2180 -13 c18 -158 -179 -218 -260 -79 -26 44 -21 48 118
105 125 51 134 50 142 -26z m-5819 -13 c29 -42 52 -82 52 -90 0 -7 -19 -18
-42 -24 -24 -6 -70 -19 -104 -29 -59 -18 -62 -18 -100 2 -21 10 -53 31 -70 46
-17 14 -6 3 23 -25 l54 -52 -127 -61 c-123 -59 -127 -61 -170 -50 -42 11 -94
56 -94 81 0 6 -3 9 -6 5 -11 -10 30 -68 64 -89 40 -25 40 -39 0 -62 -17 -11
-69 -48 -115 -83 -47 -34 -93 -63 -102 -63 -10 0 -39 18 -65 41 -59 52 -59 42
1 -22 l46 -50 -110 -112 c-109 -112 -162 -176 -242 -294 -24 -37 -49 -63 -59
-63 -21 0 -77 33 -117 69 l-29 26 26 -35 c14 -19 45 -45 68 -57 24 -13 45 -25
47 -27 6 -6 -127 -266 -136 -266 -5 0 -30 9 -56 21 -97 43 -171 141 -147 194
26 57 137 225 149 225 7 0 13 7 13 17 0 17 53 92 129 181 30 36 50 52 62 49
11 -3 16 0 12 8 -2 8 3 25 13 40 21 32 214 205 229 205 5 0 15 8 22 18 12 20
171 132 248 174 141 79 271 132 302 126 10 -2 23 2 28 9 6 7 57 27 115 44 58
17 109 35 115 40 15 15 20 11 73 -67z m-1581 39 c77 -4 106 -10 110 -20 6 -16
-29 -96 -56 -130 -70 -85 -197 -82 -257 6 -29 42 -58 136 -48 152 5 8 29 10
76 5 38 -3 117 -9 175 -13z m753 7 c0 -5 -33 -26 -72 -46 -86 -43 -173 -101
-245 -161 -57 -48 -77 -52 -132 -24 -71 37 -131 124 -131 192 0 26 20 29 198
30 92 1 199 5 237 9 108 11 145 11 145 0z m4103 -126 c501 -270 789 -497 988
-778 66 -94 152 -264 259 -516 96 -224 138 -312 194 -405 20 -33 32 -63 28
-67 -5 -5 -46 9 -93 30 -110 51 -263 106 -537 192 -122 39 -267 88 -322 110
-348 139 -590 325 -800 615 -68 94 -192 307 -217 374 -9 25 -28 64 -41 86
l-23 40 7 -47 6 -47 -66 -47 c-36 -26 -64 -49 -62 -52 3 -2 31 12 63 32 32 20
63 36 68 36 12 0 85 -168 85 -195 0 -10 -18 -35 -40 -57 -48 -45 -36 -52 13
-8 19 17 39 30 45 30 10 0 122 -171 122 -187 0 -13 -47 -56 -90 -83 -27 -17
-30 -20 -10 -15 37 11 75 32 89 49 8 9 21 16 30 16 14 0 161 -159 161 -174 0
-16 -93 -124 -121 -140 -35 -20 -33 -34 3 -16 34 18 108 91 119 118 5 12 12
22 17 22 5 0 37 -25 73 -56 35 -31 93 -77 129 -102 36 -25 69 -49 74 -53 11
-9 -41 -93 -81 -131 -16 -15 -53 -41 -83 -57 -61 -34 -43 -43 21 -11 48 25
127 102 151 147 l16 32 139 -70 c76 -38 138 -73 138 -77 0 -14 -309 -272 -326
-272 -19 0 -135 98 -242 205 -186 185 -334 392 -459 639 -32 65 -57 121 -54
124 4 3 0 12 -8 21 -20 22 -76 166 -76 194 0 13 -4 27 -10 33 -17 17 -48 121
-40 134 5 7 51 36 102 64 52 28 123 71 157 95 35 23 66 39 70 35 4 -5 17 -46
29 -92 59 -228 220 -479 417 -655 247 -220 464 -312 627 -267 58 17 130 72
156 121 20 37 23 54 20 114 -9 135 -109 291 -301 467 -270 249 -461 376 -664
444 -43 14 -82 30 -87 34 -12 12 60 100 80 100 9 0 79 -34 157 -76z m2235 -2
c10 -132 -135 -229 -260 -174 -49 21 -98 76 -98 109 0 18 13 24 93 42 50 12
124 33 162 46 93 31 99 29 103 -23z m-1592 -48 c121 -75 154 -102 154 -122 0
-14 -27 -107 -54 -187 -4 -11 4 0 18 25 14 25 32 66 41 92 9 26 21 50 26 54
11 6 49 -20 162 -114 66 -56 77 -70 77 -96 0 -43 -24 -141 -49 -201 -16 -37
-17 -45 -5 -30 26 32 53 99 64 156 6 29 15 58 20 63 6 6 49 -31 121 -105 l111
-114 -6 -56 c-3 -31 -18 -91 -34 -135 -16 -43 -32 -88 -36 -99 -4 -11 6 5 22
35 17 31 40 88 52 128 13 44 27 72 36 72 7 0 61 -64 119 -142 96 -127 105
-144 99 -172 -33 -151 -175 -436 -217 -436 -11 0 -120 243 -167 373 -8 23 -17
44 -20 47 -3 3 -30 48 -59 100 -29 52 -73 123 -97 157 -24 34 -44 64 -44 67 0
2 -55 62 -122 131 -68 70 -124 132 -126 139 -2 6 -16 18 -32 26 -35 18 -274
199 -278 212 -2 4 11 25 29 45 17 20 43 61 56 90 14 29 30 53 37 53 7 0 53
-25 102 -56z m-3809 -16 c13 -12 23 -26 24 -32 0 -6 38 -45 84 -86 46 -41 84
-83 85 -93 0 -22 -77 -177 -89 -177 -5 0 -21 20 -35 44 -43 73 -124 129 -205
142 -23 4 -44 10 -47 15 -3 5 30 31 73 59 43 27 74 50 70 50 -19 0 -198 -96
-287 -154 -191 -125 -400 -311 -573 -511 -147 -168 -263 -370 -274 -478 -6
-54 -4 -58 30 -92 33 -33 38 -35 105 -35 125 0 350 71 498 157 280 164 504
421 692 793 40 80 77 149 82 154 8 8 75 -34 92 -58 9 -14 -1 -109 -22 -201
-59 -255 -242 -489 -537 -685 -143 -94 -315 -180 -643 -320 -318 -135 -467
-206 -590 -281 -47 -28 -97 -59 -112 -68 -15 -8 -30 -13 -34 -9 -3 4 8 41 25
82 17 41 71 197 120 346 129 390 230 587 413 805 175 209 379 368 646 504 130
66 335 150 366 151 11 0 30 -10 43 -22z m2946 -7 c53 -15 60 -34 20 -55 -46
-24 -102 -89 -122 -142 -11 -27 -24 -49 -31 -49 -12 0 -60 114 -60 144 0 19
118 123 134 119 6 -2 32 -10 59 -17z m1537 -16 c52 -4 102 -9 111 -11 10 -3
22 -23 28 -50 15 -60 1 -110 -44 -154 l-35 -34 -34 30 c-114 97 -216 182 -245
205 -49 39 -34 48 51 34 40 -7 116 -16 168 -20z m518 -22 c8 -108 -99 -192
-207 -163 -50 13 -96 51 -121 101 -38 73 -36 74 107 88 70 7 130 15 133 17 2
3 22 4 45 2 39 -3 40 -4 43 -45z m-1843 -46 c33 -18 60 -38 60 -46 0 -7 -23
-22 -52 -33 -112 -41 -204 -165 -218 -291 -6 -50 -9 -56 -22 -46 -8 7 -33 49
-55 92 -39 78 -39 80 -27 131 17 74 43 119 90 160 41 35 105 64 144 65 11 0
47 -14 80 -32z m-4565 17 c17 -4 34 -13 37 -20 3 -7 -28 -50 -69 -95 -40 -46
-87 -98 -103 -117 l-30 -34 -27 22 c-57 44 -56 141 3 199 44 44 111 60 189 45z
m4812 -174 c103 -77 124 -97 116 -105 -2 -2 -35 -9 -73 -15 -179 -27 -308
-150 -340 -323 -4 -20 -13 -37 -20 -37 -7 0 -36 30 -65 68 l-52 67 4 90 c6
120 47 204 130 261 37 26 147 71 178 73 9 1 63 -35 122 -79z m1286 68 c19 -19
14 -38 -11 -38 -31 0 -38 9 -26 31 11 22 20 24 37 7z m-4772 -73 c28 -14 60
-35 72 -48 23 -25 82 -139 82 -159 0 -17 -114 -206 -139 -232 -18 -18 -20 -16
-54 55 -20 41 -52 93 -72 116 -47 55 -141 101 -222 109 -39 4 -63 11 -63 19 0
6 48 46 106 88 l107 77 66 0 c52 0 79 -6 117 -25z m4872 -24 c84 -43 123 -135
91 -218 -10 -28 -47 -73 -59 -73 -8 0 -250 267 -250 275 0 3 15 12 33 20 47
21 140 19 185 -4z m-6444 -70 c21 -5 43 -14 48 -19 6 -6 -12 -42 -50 -98 -32
-49 -72 -111 -87 -137 -47 -82 -96 -83 -134 -4 -26 55 -27 116 -1 167 22 43
50 65 108 86 44 16 64 16 116 5z m2117 -26 c38 -20 72 -42 75 -49 8 -20 -14
-129 -28 -137 -6 -4 -28 -1 -50 7 -49 17 -49 10 2 -16 28 -14 40 -27 40 -42 0
-38 -33 -140 -46 -145 -20 -7 -112 26 -142 52 l-26 23 23 68 c13 38 29 80 34
94 5 14 11 54 13 90 5 74 9 90 24 90 6 0 42 -16 81 -35z m3187 -81 c40 -36 72
-69 72 -73 0 -5 -28 -11 -63 -13 -83 -7 -146 -36 -205 -95 -62 -62 -103 -148
-110 -231 -3 -41 -10 -66 -19 -69 -15 -6 -98 55 -162 121 -43 44 -44 46 -38
95 12 103 104 228 203 279 41 21 121 40 189 45 22 2 45 4 50 5 6 1 43 -28 83
-64z m-1502 38 c17 -11 97 -164 152 -292 326 -752 319 -1608 -20 -2479 -141
-363 -429 -888 -571 -1039 -47 -50 -129 -112 -149 -112 -4 0 -68 123 -142 273
-152 308 -229 450 -429 792 -241 414 -337 612 -410 855 -71 234 -97 493 -79
766 19 276 95 672 158 824 15 36 48 124 75 195 l47 130 55 3 c39 2 59 -1 70
-13 10 -9 18 -11 22 -5 8 13 276 2 290 -12 7 -6 -6 -23 -35 -49 -39 -35 -50
-39 -80 -35 -19 3 -60 8 -90 11 l-55 4 74 -19 c40 -10 75 -21 78 -24 5 -5 -33
-94 -66 -156 -6 -10 -30 -17 -77 -20 -60 -4 -65 -6 -35 -12 18 -5 47 -8 63 -8
35 0 36 16 -7 -185 -22 -104 -29 -168 -34 -320 l-6 -190 -65 0 c-36 0 -78 3
-95 7 -28 7 -28 6 4 -8 19 -9 62 -19 95 -22 l61 -7 7 -45 c4 -25 14 -88 22
-140 8 -52 12 -98 7 -103 -8 -8 -180 16 -215 29 -9 3 -16 4 -16 1 0 -10 95
-37 171 -50 l74 -12 51 -155 c28 -85 49 -158 47 -162 -7 -13 -195 -8 -258 6
-33 8 -61 13 -63 11 -2 -2 21 -11 50 -21 33 -11 97 -20 172 -24 l119 -5 68
-160 c38 -88 67 -167 66 -175 -1 -8 5 -22 14 -30 24 -22 142 -297 136 -315 -7
-18 -33 -19 -147 -5 -104 13 -226 43 -285 71 -43 20 -45 23 -95 149 -27 70
-47 135 -44 144 3 9 2 16 -4 16 -6 0 -17 19 -26 43 -28 76 -77 261 -78 297 0
19 -4 40 -8 45 -8 10 -34 164 -45 273 -5 42 -3 67 4 76 8 10 9 16 1 21 -13 8
-14 271 -1 280 5 3 7 20 4 39 -6 38 32 248 53 290 8 16 14 41 14 55 1 38 86
302 100 311 7 4 10 12 7 17 -6 10 34 150 54 189 6 12 9 32 7 45 -6 42 -119
-242 -179 -451 -90 -311 -118 -728 -70 -1045 78 -516 290 -991 777 -1740 190
-293 167 -268 208 -221 54 63 202 306 292 481 239 462 381 935 425 1414 17
190 7 566 -20 736 -45 285 -129 558 -246 802 -68 142 -68 139 -5 159 45 15 43
15 56 6z m-2471 -54 c96 -49 194 -187 180 -252 -4 -17 -7 -44 -7 -60 -1 -23
-20 -49 -88 -120 -53 -54 -91 -86 -98 -82 -7 4 -12 26 -12 49 0 90 -88 215
-185 264 -33 18 -73 28 -118 31 -48 3 -70 9 -74 19 -6 14 121 140 171 171 36
22 172 10 231 -20z m2330 -12 c8 -25 6 -31 -20 -52 -17 -13 -48 -31 -70 -39
l-40 -15 40 6 c22 3 52 14 67 25 15 10 33 19 41 19 29 0 205 -437 191 -473 -7
-19 -96 -76 -160 -102 -32 -14 -51 -25 -42 -25 33 0 114 33 160 66 34 24 49
30 56 21 11 -14 46 -151 62 -250 10 -54 10 -71 -1 -83 -16 -19 -100 -63 -154
-80 -35 -11 -36 -13 -13 -13 34 -1 124 32 148 54 37 33 43 14 60 -184 6 -68 9
-135 6 -147 -12 -48 -314 -117 -358 -82 -15 11 -16 23 -8 89 14 118 12 273 -5
404 -9 66 -17 138 -19 160 -1 23 -5 45 -8 51 -13 20 -69 286 -64 300 3 8 2 14
-3 14 -17 0 -76 191 -68 221 3 11 -1 23 -9 27 -8 5 -17 24 -20 44 l-6 35 103
20 c57 11 109 19 114 18 6 -1 14 -14 20 -29z m-287 -29 c13 -16 94 -284 133
-442 72 -292 101 -558 81 -752 -6 -65 -14 -131 -16 -148 -3 -16 -7 -50 -11
-75 -15 -110 -150 -621 -177 -673 -5 -10 -12 -30 -14 -45 -6 -32 -72 -237 -89
-277 -7 -16 -18 -52 -25 -79 -6 -27 -18 -65 -26 -85 -13 -30 -16 -33 -28 -20
-17 17 -350 766 -410 921 -57 148 -98 291 -90 311 3 10 2 17 -4 17 -14 0 -29
76 -47 229 -24 205 -17 381 26 601 39 208 97 338 192 437 54 57 97 80 97 53 0
-6 -11 -32 -24 -58 -59 -116 -117 -366 -137 -592 -19 -215 -1 -513 46 -730 81
-380 254 -561 405 -424 80 73 114 248 114 584 -1 227 -13 358 -59 606 -24 126
-103 450 -139 569 -9 27 -12 53 -8 57 5 5 42 12 83 17 108 12 116 12 127 -2z
m-225 -111 c30 -106 28 -123 -17 -106 -39 14 -96 12 -146 -5 -63 -22 -73 -20
-65 13 13 53 69 164 93 183 17 13 37 18 65 16 l41 -2 29 -99z m3511 50 c84
-35 122 -158 74 -241 -13 -22 -31 -41 -39 -43 -17 -3 -189 229 -189 254 0 18
54 43 93 44 15 0 43 -6 61 -14z m-1180 -57 c51 -56 106 -162 106 -203 l0 -25
-46 24 c-98 52 -250 19 -296 -65 -19 -36 -21 -115 -3 -167 5 -17 3 -23 -6 -23
-19 0 -147 66 -188 97 -33 26 -33 26 -29 97 6 86 32 149 88 210 66 71 147 102
277 105 49 1 53 -1 97 -50z m-4399 -58 c59 -26 119 -81 146 -133 11 -21 28
-75 39 -120 18 -74 18 -84 4 -99 -38 -43 -282 -189 -315 -189 -12 0 -15 13
-15 73 2 138 -69 220 -204 234 -36 3 -60 11 -60 18 0 15 149 195 186 224 26
20 37 23 99 19 42 -3 90 -14 120 -27z m-1280 -5 c19 -8 35 -21 35 -29 0 -8
-22 -61 -50 -118 -27 -57 -50 -109 -50 -115 0 -6 -7 -17 -15 -24 -12 -10 -21
-6 -49 22 -40 40 -61 102 -52 152 12 61 74 118 139 125 4 1 23 -6 42 -13z
m2190 -42 c17 -12 47 -27 68 -34 49 -16 48 -31 -13 -157 -45 -96 -51 -103 -78
-103 -62 0 -182 62 -182 93 0 7 21 42 48 78 26 37 59 88 75 113 29 50 29 50
82 10z m1168 -40 c41 -19 40 -17 77 -177 11 -49 18 -93 15 -98 -3 -5 -29 4
-58 20 -98 55 -198 49 -283 -15 -73 -56 -76 -50 -43 109 23 117 35 139 87 167
46 25 147 22 205 -6z m2375 -107 c66 -41 74 -64 43 -125 -26 -52 -61 -79 -128
-98 -49 -14 -57 -14 -97 1 -53 20 -92 59 -100 100 -10 48 29 115 84 143 63 32
122 26 198 -21z m1377 -6 c49 -28 75 -76 75 -138 0 -61 -18 -103 -63 -150 -29
-31 -57 -43 -57 -25 0 4 -31 65 -70 136 -38 70 -70 134 -70 141 0 18 23 35 67
50 42 15 73 11 118 -14z m-6150 -62 c57 -16 104 -55 127 -107 17 -37 19 -57
13 -118 -4 -40 -12 -77 -18 -82 -27 -22 -152 -52 -216 -52 -74 0 -105 12 -134
52 -20 27 -20 29 -3 85 23 73 78 183 102 204 32 29 71 34 129 18z m1052 -33
c34 -29 107 -66 128 -66 34 0 25 -32 -34 -117 -87 -128 -95 -135 -139 -127
-44 7 -138 48 -167 72 -15 13 -15 11 3 -9 25 -29 117 -79 145 -79 39 0 28 -31
-39 -104 -94 -104 -94 -104 -200 -70 -99 31 -234 114 -234 143 0 10 12 23 28
30 15 7 71 42 125 77 54 35 100 64 102 64 7 0 99 85 165 151 30 31 63 57 72
58 9 0 29 -10 45 -23z m4635 7 c26 -30 148 -249 148 -266 0 -9 -9 -31 -20 -49
-10 -18 -42 -89 -70 -158 -65 -159 -119 -260 -136 -260 -27 0 -174 254 -174
300 0 11 18 43 40 72 51 67 131 222 160 311 12 37 25 67 29 67 4 0 15 -8 23
-17z m-6403 -42 c25 -48 92 -107 140 -122 20 -6 40 -15 44 -19 7 -6 -92 -322
-106 -336 -3 -3 -39 10 -79 29 -56 27 -82 47 -112 86 -41 55 -54 65 -35 29 39
-76 127 -148 181 -148 16 0 31 -7 34 -15 13 -34 -113 -355 -139 -355 -15 0
-69 60 -149 165 -76 101 -75 90 -28 229 22 68 47 132 55 142 8 10 15 28 15 38
0 21 91 233 122 284 11 17 24 32 29 32 5 0 18 -18 28 -39z m-360 -5 c13 -13 9
-30 -29 -143 -63 -188 -57 -182 -133 -134 -54 35 -87 92 -87 149 0 85 91 158
184 148 28 -3 56 -12 65 -20z m3484 -29 c23 -14 57 -41 75 -60 29 -30 35 -46
53 -142 21 -121 16 -140 -27 -106 -90 71 -258 60 -385 -24 -21 -14 -43 -25
-49 -25 -11 0 -14 170 -3 233 7 48 76 119 135 141 60 22 147 15 201 -17z
m-1013 -147 c0 -5 -9 -65 -20 -132 -10 -68 -24 -186 -30 -262 -6 -77 -15 -145
-21 -152 -5 -6 -21 -14 -36 -17 -62 -12 -138 35 -180 110 l-22 39 83 111 c46
60 111 156 146 212 56 91 80 119 80 91z m2113 -117 c46 -71 113 -166 150 -212
58 -73 65 -87 60 -115 -13 -68 -56 -119 -111 -130 -15 -3 -49 0 -77 7 l-50 13
-12 145 c-8 79 -22 197 -33 263 -20 120 -24 156 -15 156 2 0 42 -57 88 -127z
m2833 78 c78 -35 118 -120 100 -214 -13 -69 -141 -178 -171 -145 -6 7 -27 54
-45 103 -18 50 -45 121 -61 159 -16 37 -29 72 -29 77 0 4 12 15 28 23 38 21
128 20 178 -3z m-464 -82 c43 -86 78 -180 78 -209 0 -99 -85 -295 -178 -412
-81 -101 -210 -207 -296 -243 -32 -13 -44 -12 -192 31 -188 54 -198 59 -164
72 14 5 48 15 75 21 112 25 309 149 359 226 17 26 54 33 73 14 13 -13 33 -4
33 15 0 8 -7 19 -15 26 -22 18 -19 36 15 85 16 24 50 85 75 137 43 87 56 125
85 236 13 50 28 51 52 1z m-5329 -75 c67 -60 127 -94 200 -114 34 -9 62 -21
64 -27 8 -22 -252 -220 -424 -324 l-82 -50 -88 36 c-112 47 -172 81 -253 146
-95 76 -100 78 -50 25 59 -63 141 -118 257 -173 80 -38 93 -47 82 -59 -21 -21
-219 -124 -237 -124 -25 0 -177 94 -252 155 -92 76 -164 151 -158 167 9 21
196 101 223 94 16 -4 24 -1 27 12 4 12 54 38 157 82 84 35 160 63 169 63 9 0
19 3 22 8 8 12 253 127 274 128 10 1 41 -20 69 -45z m1933 1 c78 -40 79 -41
86 -85 9 -60 10 -220 1 -220 -3 0 -36 12 -72 26 -57 23 -76 26 -151 22 -91 -5
-150 -27 -202 -75 -51 -48 -59 -29 -74 170 -6 83 -6 89 17 113 59 63 144 95
245 91 59 -2 83 -8 150 -42z m-3661 25 c7 -12 -72 -330 -86 -344 -13 -14 -89
43 -110 84 -23 41 -25 120 -5 158 8 15 28 40 44 55 46 44 141 72 157 47z
m6043 -145 c8 -8 -67 -101 -130 -161 -76 -74 -226 -174 -260 -174 -26 0 -209
107 -247 144 l-23 24 53 41 c126 97 177 139 231 188 l56 52 158 -55 c87 -30
160 -57 162 -59z m166 -46 c247 -78 513 -193 524 -228 7 -21 -121 -136 -206
-186 -79 -47 -193 -88 -272 -99 -36 -6 -65 0 -144 27 -55 18 -101 38 -103 44
-2 6 36 32 85 57 49 26 120 73 158 105 70 59 162 167 151 177 -3 4 -48 -36
-99 -88 -97 -99 -169 -153 -278 -208 l-65 -33 -50 18 c-81 29 -215 93 -215
103 0 5 32 29 72 52 83 50 225 182 270 252 17 26 33 48 36 48 3 0 64 -19 136
-41z m991 -121 c38 -118 85 -308 85 -340 0 -16 -5 -28 -10 -28 -6 0 -24 -28
-39 -63 -16 -34 -43 -78 -62 -97 -48 -47 -133 -84 -189 -82 -56 3 -302 74
-307 88 -2 6 25 28 61 49 96 56 178 127 241 207 61 78 137 224 156 301 6 27
17 47 25 47 8 0 24 -33 39 -82z m410 33 c96 -44 129 -134 84 -228 -25 -51 -81
-93 -124 -93 l-30 0 -35 143 c-46 188 -45 176 -18 186 36 15 80 12 123 -8z
m-2577 -84 c37 -34 88 -80 115 -101 26 -21 47 -45 47 -52 0 -22 -61 -54 -102
-54 -95 0 -178 79 -178 170 0 37 25 100 40 100 6 0 41 -28 78 -63z m-2792 12
c17 -46 17 -133 0 -172 -26 -62 -93 -107 -158 -107 -41 0 -98 28 -110 55 -9
19 4 35 114 143 68 67 127 120 132 119 5 -2 15 -19 22 -38z m1432 11 c85 -37
94 -55 87 -174 -10 -163 -13 -168 -71 -116 -87 76 -241 57 -312 -39 -29 -39
-38 -39 -51 2 -9 28 -51 226 -51 241 0 23 110 89 177 106 60 15 162 6 221 -20z
m-3772 -55 c6 -16 -45 -297 -57 -317 -19 -30 -113 34 -144 98 -37 77 5 177 89
215 51 23 104 25 112 4z m904 -42 c44 -58 144 -139 256 -207 48 -29 89 -57 91
-63 4 -10 -194 -107 -242 -119 -51 -13 -434 209 -443 257 -5 25 265 194 292
183 6 -3 27 -26 46 -51z m1711 -48 c13 -116 10 -185 -6 -192 -47 -17 -135 58
-135 116 0 38 32 93 71 119 50 34 63 27 70 -43z m1892 -111 c-1 -87 -6 -177
-11 -199 -8 -40 -9 -40 -97 -74 -50 -18 -119 -39 -155 -46 l-65 -13 55 -1 c64
-1 137 17 197 47 23 12 45 22 48 22 11 0 3 -80 -20 -203 -13 -71 -25 -130 -27
-132 -2 -2 -43 -16 -93 -33 -78 -26 -129 -37 -270 -56 -16 -3 17 -3 75 -2 84
2 120 8 180 30 41 15 80 28 85 29 16 3 8 -51 -27 -173 l-33 -115 -54 -18 c-30
-10 -87 -25 -125 -33 -90 -20 -321 -31 -330 -16 -6 10 65 261 84 294 6 10 10
24 10 31 0 15 85 300 99 332 10 24 78 312 87 372 8 54 24 67 71 60 53 -9 179
11 243 38 30 12 60 22 65 20 6 -1 9 -61 8 -161z m384 130 c57 -33 76 -72 71
-142 -4 -48 -10 -60 -40 -88 -41 -37 -111 -54 -147 -35 -20 11 -21 19 -21 150
0 76 3 141 8 145 12 13 85 -4 129 -30z m564 -144 c168 -102 158 -92 133 -126
-33 -45 -69 -66 -121 -71 -97 -10 -173 60 -173 157 0 44 23 110 38 110 6 0 61
-31 123 -70z m-3401 -6 c45 -117 -69 -236 -195 -203 -43 12 -75 35 -75 54 0 6
37 37 83 68 45 31 96 68 112 81 39 33 63 33 75 0z m1676 -19 c27 -13 62 -41
78 -61 29 -37 29 -38 17 -97 -35 -168 -116 -226 -222 -159 -76 49 -154 167
-141 215 3 11 25 40 48 63 67 67 138 80 220 39z m4085 -21 c68 -34 108 -123
89 -194 -20 -76 -101 -139 -177 -140 -38 0 -36 -4 -54 145 -24 211 -24 194 2
205 29 11 103 3 140 -16z m-5179 -90 c3 -16 16 -80 29 -143 25 -130 25 -131
-54 -131 -90 0 -137 46 -137 135 0 25 6 58 14 73 27 51 100 106 131 98 5 -1
13 -16 17 -32z m3145 -34 c72 -33 136 -60 141 -60 5 0 15 -7 23 -16 30 -36
-68 -138 -146 -151 -109 -18 -198 59 -198 172 0 47 24 115 41 115 4 0 66 -27
139 -60z m1630 -16 c6 -38 14 -104 18 -146 9 -94 15 -92 -148 -46 -120 33
-155 52 -121 64 99 35 168 91 201 165 9 22 22 38 27 36 6 -2 16 -35 23 -73z
m-5651 -34 c52 -146 -73 -268 -205 -200 -37 18 -91 72 -91 90 0 5 53 36 118
70 64 34 121 66 127 71 17 17 38 5 51 -31z m3076 28 c22 -6 53 -28 73 -50 31
-33 35 -45 35 -92 0 -38 -6 -62 -23 -87 -29 -44 -98 -79 -155 -79 -53 0 -52
-17 2 -35 122 -42 168 -182 89 -275 -37 -44 -74 -60 -142 -60 -83 0 -94 12
-75 85 35 131 65 286 84 428 12 84 23 158 25 165 5 15 36 15 87 0z m1313 -124
c72 -26 134 -50 139 -55 22 -19 -79 -132 -141 -158 -54 -22 -116 8 -150 72
-17 33 -23 153 -9 176 11 17 21 15 161 -35z m-4706 -71 c27 -94 5 -174 -54
-199 -47 -19 -81 -18 -132 7 -42 20 -106 94 -100 113 4 12 233 114 259 115 12
1 20 -11 27 -36z m5061 -52 l145 -48 -1 -36 c-4 -119 -160 -188 -259 -113 -49
38 -69 80 -69 151 -1 67 7 95 26 95 8 0 79 -22 158 -49z m1323 -64 c38 -49 56
-99 57 -160 1 -161 -174 -272 -310 -196 -49 27 -96 81 -105 122 l-7 27 101 0
102 0 16 38 c11 24 18 71 19 134 1 54 5 102 9 108 10 16 82 -29 118 -73z
m-5124 51 c44 -113 90 -252 86 -259 -10 -14 -91 -21 -131 -10 -22 6 -55 26
-74 46 -33 34 -35 41 -35 100 0 57 3 68 27 92 25 24 74 49 106 52 7 0 16 -9
21 -21z m-1571 -108 c2 -66 0 -81 -20 -110 -15 -23 -38 -40 -65 -49 -36 -13
-45 -13 -87 3 -46 17 -136 104 -136 131 0 15 243 103 280 101 24 -1 25 -4 28
-76z m5750 4 c87 -25 165 -48 175 -50 27 -8 20 -27 -25 -70 -63 -60 -100 -82
-155 -95 -43 -10 -55 -9 -95 9 -30 13 -52 31 -62 51 -16 29 -38 178 -29 194 7
13 32 8 191 -39z m-6090 -96 c3 -53 1 -60 -33 -96 -70 -79 -173 -79 -247 0
-53 55 -50 74 15 92 28 8 90 26 137 40 119 35 124 34 128 -36z m6492 -12 c98
-24 136 -37 138 -49 5 -25 -35 -93 -69 -118 -44 -31 -123 -36 -169 -11 -58 32
-97 135 -74 196 8 21 17 20 174 -18z m-6845 -72 c-1 -90 -73 -154 -173 -154
-57 0 -104 27 -140 80 -18 27 -20 36 -10 46 14 13 282 83 308 80 11 -1 15 -14
15 -52z m2456 -174 c89 -176 89 -180 -8 -180 -108 0 -184 77 -185 187 0 71 59
159 100 151 8 -2 49 -73 93 -158z m350 -10 c99 -34 223 -54 290 -47 25 3 50 3
56 -1 6 -4 35 -61 64 -127 55 -126 71 -151 87 -141 11 7 15 16 57 157 l25 87
153 0 c129 0 166 3 245 24 74 19 95 22 99 12 5 -15 -28 -121 -62 -200 -22 -49
-23 -50 -96 -72 -146 -44 -239 -55 -444 -50 -178 4 -185 4 -115 -8 165 -28
435 -13 560 31 35 12 42 12 46 0 3 -8 -26 -79 -64 -159 -70 -145 -70 -145
-114 -158 -26 -7 -100 -12 -188 -12 -120 0 -160 4 -235 23 -148 39 -151 40
-232 176 -40 66 -73 128 -73 138 0 19 1 19 85 1 11 -2 2 5 -20 15 -22 11 -44
20 -50 21 -31 3 -79 67 -134 177 -64 129 -73 159 -43 149 9 -3 56 -19 103 -36z
m1490 -6 c43 -22 72 -71 77 -131 6 -66 -9 -103 -58 -147 -58 -52 -132 -68
-214 -45 -46 13 -47 9 19 201 31 90 53 139 64 142 23 6 81 -4 112 -20z m-1641
-345 c88 -153 92 -163 75 -175 -10 -8 -39 -14 -64 -14 -151 0 -255 114 -221
241 13 48 68 109 97 109 14 0 44 -42 113 -161z m1443 -12 c45 -19 105 -89 113
-132 14 -74 -10 -135 -69 -179 -58 -43 -227 -27 -227 22 0 11 15 52 34 93 19
41 48 104 64 142 17 37 36 67 42 67 6 0 25 -6 43 -13z m-1236 -352 c82 -148
83 -150 63 -169 -13 -14 -37 -21 -79 -24 -49 -4 -67 0 -101 19 -69 39 -102
116 -80 186 15 47 87 145 103 140 7 -2 49 -70 94 -152z m252 75 c100 -39 206
-53 354 -47 92 4 137 2 137 -5 0 -21 -111 -197 -127 -202 -53 -14 -123 -15
-173 -2 -30 8 -56 13 -58 11 -8 -8 90 -37 144 -42 35 -3 64 -10 64 -15 0 -20
-91 -148 -105 -148 -16 0 -135 172 -135 195 0 7 5 15 12 17 6 2 -5 14 -25 26
-25 14 -57 52 -97 114 -80 125 -80 133 9 98z m841 -108 c21 -21 43 -56 51 -80
32 -107 -76 -210 -195 -188 -19 4 -44 14 -55 24 -20 17 -19 18 50 150 80 150
88 155 149 94z m-893 -347 c51 -99 91 -184 90 -190 -5 -20 -91 -55 -135 -55
-174 0 -232 238 -96 399 14 18 32 30 38 29 6 -2 52 -85 103 -183z m697 55 c99
-65 102 -217 5 -274 -59 -35 -185 -16 -203 30 -3 9 11 41 32 72 22 31 52 80
67 107 30 53 54 85 64 85 3 0 19 -9 35 -20z m-544 -368 c19 -39 40 -77 47 -83
18 -18 108 31 186 102 36 32 70 59 75 59 25 0 30 -121 7 -196 -52 -176 -281
-234 -393 -98 -42 51 -60 128 -43 186 15 50 58 111 74 105 7 -2 28 -35 47 -75z"/>
<path d="M3469 4763 c26 -39 80 -73 112 -72 19 0 14 5 -21 20 -25 11 -60 35
-79 52 l-34 32 22 -32z"/>
<path d="M5520 4080 c25 -8 87 -13 79 -6 -2 2 -26 6 -54 9 -34 4 -42 3 -25 -3z"/>
<path d="M5630 2685 c62 -21 195 -34 255 -25 28 4 46 8 40 9 -5 1 -72 6 -149
11 -76 6 -150 12 -165 15 -14 3 -6 -2 19 -10z"/>
<path d="M6749 4504 c-25 -27 -67 -52 -109 -65 l-25 -7 28 -1 c37 -1 103 33
123 64 23 35 13 40 -17 9z"/>
<path d="M4044 3717 c56 -74 173 -146 250 -153 37 -4 39 -3 16 7 -155 71 -192
93 -240 135 -52 47 -53 47 -26 11z"/>
<path d="M1043 6499 c-46 -33 -83 -64 -83 -69 0 -14 79 17 155 62 118 69 117
68 60 67 -45 0 -59 -7 -132 -60z"/>
<path d="M4520 6461 c0 -257 69 -551 183 -777 100 -199 292 -419 468 -536 279
-186 606 -260 1014 -229 452 35 784 136 1054 321 413 283 654 710 686 1218 6
98 6 102 -14 102 -16 0 -20 -8 -23 -37 -4 -44 6 -43 -158 -19 -63 9 -126 16
-140 15 -25 -1 202 -55 257 -61 26 -3 28 -6 31 -53 5 -68 -26 -235 -44 -242
-8 -3 -60 13 -117 35 -56 22 -115 45 -132 50 -50 15 -37 35 35 52 40 10 66 22
68 30 1 9 -18 26 -45 42 -67 37 -126 90 -160 143 -22 35 -34 45 -55 45 -16 0
-28 -2 -28 -5 0 -18 62 -99 113 -148 34 -32 56 -61 51 -66 -5 -4 -29 -16 -54
-25 -128 -49 -268 -178 -337 -311 -59 -114 -76 -188 -76 -322 1 -78 -3 -113
-11 -113 -6 0 -45 10 -86 21 -97 26 -287 36 -372 19 -92 -18 -175 -54 -246
-108 -64 -48 -134 -132 -158 -189 -21 -48 -33 -49 -67 -7 -80 98 -166 152
-293 184 -139 36 -356 23 -521 -31 -35 -11 -67 -18 -73 -14 -5 3 -10 36 -10
73 0 129 -47 260 -132 370 -53 69 -125 125 -215 168 -40 20 -73 38 -73 40 0 3
18 35 40 72 56 92 81 178 87 295 6 94 5 97 -16 97 -18 0 -21 -6 -21 -42 0 -24
-4 -49 -8 -55 -7 -11 -83 -25 -207 -37 -22 -2 16 -2 84 0 l124 4 -7 -46 c-3
-25 -14 -65 -25 -88 -17 -40 -22 -44 -67 -50 -27 -3 -85 -17 -129 -31 -100
-31 -121 -31 -129 -2 -4 12 -9 95 -13 185 -5 126 -9 162 -20 162 -10 0 -13
-23 -13 -99z m3136 -271 c81 -33 153 -65 160 -72 11 -11 8 -28 -15 -93 -34
-97 -78 -185 -91 -185 -6 0 -73 44 -150 99 -77 54 -164 111 -195 127 -33 17
-55 36 -55 45 0 30 143 139 181 139 9 0 84 -27 165 -60z m-2806 26 c0 -8 -21
-42 -46 -76 -25 -34 -43 -67 -41 -74 3 -6 28 -18 56 -25 28 -7 61 -21 74 -31
l22 -18 -25 -10 c-14 -5 -67 -24 -118 -42 -51 -18 -91 -35 -88 -37 2 -2 65 15
140 38 l135 43 48 -40 c25 -22 48 -45 51 -52 2 -6 -21 -23 -50 -38 -60 -29
-202 -133 -195 -141 3 -3 32 13 64 35 32 21 81 51 108 66 28 14 60 33 72 42
19 14 23 14 41 -6 29 -31 82 -134 82 -159 0 -11 -10 -26 -22 -32 -31 -16 -191
-144 -209 -166 -8 -10 4 -4 26 13 69 53 196 134 211 134 25 0 35 -90 23 -190
-10 -73 -11 -76 -64 -127 -29 -29 -59 -53 -65 -53 -19 0 -172 161 -166 175 2
7 -4 15 -14 18 -37 9 -240 353 -240 405 0 9 -9 34 -20 57 -24 50 -62 200 -58
229 3 18 16 24 103 42 55 11 107 23 115 26 27 11 50 8 50 -6z m2564 -208 c171
-115 276 -196 276 -214 0 -38 -153 -246 -254 -344 l-56 -54 -34 18 c-64 34
-171 121 -186 151 -10 21 -15 61 -15 135 0 137 31 236 107 348 16 23 32 42 35
42 3 0 60 -37 127 -82z m-580 -434 c33 -5 46 -11 46 -23 0 -16 177 -292 206
-321 12 -12 14 -12 14 2 0 17 -21 49 -138 214 -40 56 -72 105 -72 109 0 12 80
-2 167 -30 48 -15 92 -23 109 -20 24 5 38 -2 84 -42 31 -26 66 -55 79 -63 13
-9 20 -21 16 -30 -10 -27 -152 -124 -277 -189 l-122 -63 -31 34 c-16 19 -69
82 -117 140 -106 129 -201 231 -167 178 22 -32 109 -143 232 -293 26 -32 45
-62 42 -67 -8 -12 -218 -80 -248 -80 -21 0 -29 12 -61 88 -35 83 -155 315
-156 300 0 -12 100 -239 137 -310 19 -37 33 -74 30 -82 -6 -14 -117 -38 -187
-40 -32 -1 -37 3 -57 44 -32 65 -62 158 -73 225 -9 54 -7 63 15 101 29 50 92
107 110 100 7 -2 15 4 18 14 6 23 101 72 130 68 12 -2 27 3 32 10 19 24 150
38 239 26z m-1001 -119 c22 -9 23 -1 -26 -180 -20 -71 -43 -164 -52 -205 -23
-107 -21 -105 -94 -91 -95 19 -161 41 -161 54 0 7 36 96 80 198 73 170 96 239
71 214 -5 -6 -45 -98 -89 -205 -54 -135 -84 -196 -96 -198 -19 -4 -176 67
-176 80 0 4 -6 8 -12 8 -19 0 -167 102 -173 119 -4 10 4 23 22 36 15 11 46 36
70 56 52 46 193 97 193 70 0 -5 -16 -35 -35 -67 -20 -33 -45 -88 -55 -123 -23
-73 -23 -71 -12 -71 5 0 15 19 22 43 25 86 102 215 143 242 12 8 51 18 87 23
74 10 266 8 293 -3z m121 -40 c29 -14 70 -40 91 -58 l39 -33 -22 -45 c-31 -64
-45 -172 -33 -249 6 -34 8 -67 4 -73 -8 -13 -261 -3 -274 10 -7 7 7 68 39 174
28 90 55 191 62 224 18 89 15 87 94 50z m184 -162 c16 -27 33 -58 36 -70 10
-34 56 -42 56 -10 0 7 5 29 11 50 13 47 39 50 39 4 0 -49 28 -146 56 -196 13
-25 21 -48 16 -53 -13 -13 -281 -33 -292 -22 -20 20 -23 137 -6 224 18 87 30
120 45 120 5 0 22 -21 39 -47z"/>
<path d="M7240 5817 c29 -29 284 -207 298 -207 7 0 10 5 6 11 -6 10 -261 181
-304 204 -13 7 -13 6 0 -8z"/>
<path d="M5180 6503 c0 -122 35 -261 93 -378 113 -227 313 -388 568 -457 109
-29 335 -32 443 -5 400 100 686 422 724 817 8 78 8 80 -14 80 -20 0 -23 -6
-29 -67 -10 -98 -31 -186 -64 -265 -34 -79 -99 -185 -120 -193 -27 -11 -102
36 -132 83 -67 106 -39 224 69 293 39 24 56 29 112 29 63 0 110 17 110 41 0 5
-30 9 -67 9 -71 0 -136 22 -162 53 -7 10 -25 17 -39 17 -25 0 -25 -1 18 -46
l45 -46 -25 -16 c-110 -74 -157 -172 -130 -272 6 -23 9 -44 6 -47 -3 -3 -23 2
-46 11 -96 38 -209 1 -263 -86 -34 -54 -48 -59 -70 -24 -26 38 -112 76 -176
76 -77 0 -129 -28 -207 -113 l-65 -72 6 52 c17 133 -83 272 -197 273 -40 0
-42 15 -8 61 42 58 64 137 55 200 -6 42 -10 49 -30 49 -22 0 -22 -2 -18 -64 6
-74 -11 -136 -53 -192 -29 -37 -116 -94 -146 -94 -11 0 -18 -8 -18 -18 0 -18
-18 -42 -31 -42 -9 0 -45 92 -64 165 -9 33 -19 102 -22 153 -6 88 -7 92 -29
92 -22 0 -24 -4 -24 -57z m464 -330 c48 -33 86 -101 86 -155 0 -21 -12 -72
-26 -115 l-26 -77 29 -23 c15 -13 32 -22 37 -20 5 2 30 42 55 88 85 158 133
199 232 199 102 0 198 -77 199 -159 1 -43 22 -106 44 -130 22 -24 21 -68 -1
-75 -10 -3 -56 -10 -103 -16 -207 -28 -449 38 -623 170 -69 52 -159 153 -193
215 l-18 35 34 30 c61 54 108 71 174 66 44 -3 70 -12 100 -33z m907 -76 c160
-85 184 -100 184 -115 0 -20 -121 -123 -200 -169 -71 -42 -194 -93 -209 -87
-14 5 -50 176 -49 228 1 25 11 53 30 80 59 84 157 109 244 63z m-812 -250
c-10 -38 -29 -51 -29 -19 0 18 29 66 36 60 2 -2 -1 -21 -7 -41z"/>
<path d="M5735 6538 c22 -73 88 -148 168 -190 35 -19 58 -23 137 -23 82 0 102
3 144 25 56 29 115 92 145 155 26 56 26 55 -3 55 -16 0 -26 -7 -30 -22 -12
-45 -73 -113 -127 -143 -46 -26 -64 -30 -129 -30 -65 0 -83 4 -129 30 -54 30
-117 99 -127 142 -4 16 -13 23 -31 23 -21 0 -23 -3 -18 -22z"/>
<path d="M11166 6449 c13 -61 25 -114 28 -117 10 -10 5 91 -7 158 -8 44 -17
66 -28 68 -13 2 -12 -12 7 -109z"/>
<path d="M8192 5925 c-1 -17 -6 -46 -12 -64 -12 -43 -4 -54 10 -15 6 15 9 46
7 68 -3 31 -4 34 -5 11z"/>
</g>
</svg>
