<svg xmlns="http://www.w3.org/2000/svg" id="icon_departamentos_hortifruti" width="52" height="52" viewBox="0 0 52 52">
    <defs>
        <style>
            .cls-1{fill:none}
        </style>
    </defs>
    <g id="Group_7" data-name="Group 7">
        <g id="Group_6" data-name="Group 6">
            <path id="Path_3" d="M41 23.3a9.888 9.888 0 0 0-6.1-6.2 9.521 9.521 0 0 0-8.2 1.6 10.79 10.79 0 0 0-1-2.7 5.783 5.783 0 0 0 3.6-1.7 5.889 5.889 0 0 0 1.5-5.8c-.1-.3-.3-.6-.6-.6a6.124 6.124 0 0 0-5.8 1.5 6.091 6.091 0 0 0-1.7 3.5 9.473 9.473 0 0 0-4.7-1.3.9.9 0 1 0 0 1.8 7.12 7.12 0 0 1 6.7 4.9A9.377 9.377 0 0 0 17 17c-2.8.8-4.9 3-6.1 6.2a16.14 16.14 0 0 0-.1 10.2 16.436 16.436 0 0 0 5.7 8.4 9.621 9.621 0 0 0 8.5 1.8l.9-.3c.3.1.7.3 1 .4a10.039 10.039 0 0 0 2.4.4 10.166 10.166 0 0 0 6.1-2.2 16.436 16.436 0 0 0 5.7-8.4 16.14 16.14 0 0 0-.1-10.2zm-16.4-9.1a3.922 3.922 0 0 1 1.2-3.4 4.35 4.35 0 0 1 3.4-1.2A3.922 3.922 0 0 1 28 13a4.35 4.35 0 0 1-3.4 1.2zM39.4 33a14.3 14.3 0 0 1-5 7.5 7.8 7.8 0 0 1-6.9 1.5c-.4-.1-.8-.3-1.1-.4a.85.85 0 0 0-.8 0 4.179 4.179 0 0 1-1 .4c-4.7 1.4-10-2.7-11.9-9-1.9-6.4.3-12.7 5-14.1 2.5-.8 5.4.1 7.8 2.3a1.421 1.421 0 0 0 .6.2.6.6 0 0 0 .6-.3c2.4-2.2 5.2-3 7.7-2.2 4.7 1.4 6.9 7.7 5 14.1z" data-name="Path 3"/>
        </g>
    </g>
    <g id="Group_9" data-name="Group 9">
        <g id="Group_8" data-name="Group 8">
            <path id="Path_4" d="M19.1 20.6A.832.832 0 0 0 18 20c-2 .6-3.5 2.3-4.3 4.8a13.826 13.826 0 0 0 .1 7.8.961.961 0 0 0 .9.7h.3a.832.832 0 0 0 .6-1.1 11.783 11.783 0 0 1-.1-6.7 5 5 0 0 1 3.1-3.6 1.536 1.536 0 0 0 .5-1.3z" data-name="Path 4"/>
        </g>
    </g>
</svg>
